<svg width="353" height="374" viewBox="0 0 353 374" fill="none" xmlns="http://www.w3.org/2000/svg">
<g filter="url(#filter0_i_4866_298)">
<path d="M8.26469 220.389C3.61913 220.098 0 216.246 0 211.591L0 180.408C0 175.753 3.61913 171.901 8.26469 171.61L49.3992 169.039C54.4737 168.722 58.7635 172.752 58.7635 177.837V214.162C58.7635 219.247 54.4737 223.277 49.3991 222.96L8.26469 220.389Z" fill="#9984F6"/>
</g>
<g filter="url(#filter1_d_4866_298)">
<path d="M34.8691 204.403C34.6348 204.403 34.3678 204.325 34.0684 204.169L24.791 199.589H24.7129V205.057C24.7129 205.461 24.6185 205.777 24.4297 206.005C24.2344 206.226 23.974 206.337 23.6484 206.337C23.3229 206.337 23.0625 206.226 22.8672 206.005C22.6654 205.777 22.5645 205.461 22.5645 205.057V198.221C22.5645 197.824 22.6849 197.499 22.9258 197.245C23.1667 196.991 23.4857 196.864 23.8828 196.864C24.3711 196.864 24.9701 197.043 25.6797 197.401L35.2109 202.001C35.7708 202.294 36.0508 202.688 36.0508 203.182C36.0508 203.534 35.9401 203.827 35.7188 204.061C35.4974 204.289 35.2142 204.403 34.8691 204.403ZM33.082 195.775C32.776 195.775 32.5221 195.677 32.3203 195.482C32.1185 195.286 32.0176 195.039 32.0176 194.739C32.0176 194.329 32.2617 193.958 32.75 193.626C33.668 193.047 34.127 192.204 34.127 191.097C34.127 190.368 33.9447 189.785 33.5801 189.349C33.2155 188.906 32.7305 188.685 32.125 188.685C31.5195 188.685 31.0312 188.906 30.6602 189.349C30.2826 189.792 30.0938 190.371 30.0938 191.087V192.044C30.0938 192.337 29.9961 192.581 29.8008 192.777C29.599 192.965 29.3483 193.06 29.0488 193.06C28.7559 193.06 28.5117 192.965 28.3164 192.777C28.1211 192.581 28.0234 192.337 28.0234 192.044V191.136C28.0234 190.537 27.8477 190.042 27.4961 189.652C27.1445 189.254 26.7018 189.056 26.168 189.056C25.6341 189.056 25.2012 189.251 24.8691 189.642C24.5306 190.032 24.3613 190.537 24.3613 191.155C24.3613 192.126 24.804 192.871 25.6895 193.392C26.1517 193.672 26.3828 194.036 26.3828 194.486C26.3828 194.798 26.2852 195.055 26.0898 195.257C25.888 195.459 25.6276 195.56 25.3086 195.56C24.5078 195.56 23.8079 195.13 23.209 194.271C22.61 193.411 22.3105 192.357 22.3105 191.107C22.3105 189.759 22.6393 188.659 23.2969 187.806C23.9544 186.946 24.804 186.517 25.8457 186.517C26.5684 186.517 27.2194 186.754 27.7988 187.23C28.3783 187.705 28.7168 188.278 28.8145 188.948H28.9805C29.0586 188.135 29.4069 187.458 30.0254 186.917C30.6374 186.377 31.3665 186.107 32.2129 186.107C33.3783 186.107 34.332 186.575 35.0742 187.513C35.8099 188.444 36.1777 189.645 36.1777 191.116C36.1777 192.412 35.8685 193.512 35.25 194.417C34.625 195.322 33.9023 195.775 33.082 195.775Z" fill="#202020"/>
</g>
<g filter="url(#filter2_i_4866_298)">
<path d="M14.3215 145.07C10.262 142.793 8.67274 137.752 10.6923 133.558L24.2224 105.463C26.242 101.269 31.1742 99.3685 35.4857 101.123L73.662 116.654C78.3716 118.57 80.488 124.062 78.282 128.643L62.5209 161.371C60.3149 165.952 54.7013 167.722 50.2669 165.234L14.3215 145.07Z" fill="#C2F2CA"/>
</g>
<g filter="url(#filter3_d_4866_298)">
<path d="M43.6366 141.641C43.3375 141.497 43.1305 141.289 43.0158 141.017C42.8981 140.737 42.9085 140.453 43.0469 140.165C43.2192 139.807 43.5609 139.585 44.0722 139.499C45.1676 139.34 45.9271 138.821 46.3508 137.941C46.67 137.278 46.7231 136.635 46.51 136.012C46.2939 135.381 45.8544 134.905 45.1916 134.586C44.5522 134.278 43.9343 134.234 43.3377 134.452C42.738 134.662 42.2857 135.084 41.9806 135.717C41.6896 136.321 41.6239 136.99 41.7833 137.725C41.873 138.079 41.9178 138.353 41.9178 138.548C41.9206 138.738 41.8811 138.917 41.7991 139.087C41.624 139.451 41.3639 139.683 41.0189 139.785C40.6681 139.883 40.2988 139.824 39.9113 139.609L35.5456 137.105C34.7468 136.649 34.579 135.939 35.0423 134.977L37.4405 129.997C37.61 129.645 37.8293 129.415 38.0985 129.306C38.3647 129.188 38.6502 129.203 38.9553 129.35C39.2603 129.497 39.4512 129.708 39.5281 129.984C39.5991 130.256 39.5485 130.571 39.3762 130.929L37.1856 135.478L40.1728 137.22L40.2321 137.097C40.0494 136.756 39.9775 136.32 40.0162 135.79C40.0549 135.259 40.1985 134.736 40.4471 134.22C40.9979 133.076 41.8064 132.32 42.8725 131.952C43.9386 131.584 45.0523 131.679 46.2138 132.239C47.4925 132.854 48.3229 133.771 48.7049 134.988C49.087 136.206 48.9489 137.498 48.2908 138.864C47.7343 140.02 46.9954 140.856 46.0742 141.374C45.1472 141.888 44.3346 141.978 43.6366 141.641ZM50.9736 129.647L42.4214 125.529L42.396 125.581L42.6689 127.198C42.725 127.637 42.6965 127.973 42.5835 128.208C42.4677 128.449 42.291 128.613 42.0536 128.701C41.8131 128.78 41.5726 128.762 41.3321 128.646C40.9684 128.471 40.7457 128.085 40.6641 127.49L40.3227 125.385C40.2033 124.598 40.2622 123.958 40.4995 123.465C40.7057 123.037 41.0059 122.759 41.4 122.63C41.7969 122.496 42.2183 122.537 42.6641 122.751L52.1049 127.298C52.5096 127.493 52.774 127.747 52.898 128.059C53.0221 128.372 52.9937 128.716 52.8129 129.091C52.6349 129.461 52.3851 129.695 52.0633 129.793C51.7357 129.888 51.3724 129.839 50.9736 129.647Z" fill="#202020"/>
</g>
<g filter="url(#filter4_i_4866_298)">
<path d="M52.4604 79.8385C49.7909 76.0254 50.5464 70.7939 54.1855 67.8918L78.5659 48.4491C82.205 45.547 87.4734 45.9746 90.5969 49.4256L118.254 79.9829C121.666 83.7526 121.19 89.6192 117.214 92.7893L88.8139 115.438C84.8388 118.608 79.0132 117.767 76.0973 113.602L52.4604 79.8385Z" fill="#D0D2ED"/>
</g>
<g filter="url(#filter5_d_4866_298)">
<path d="M80.2873 91.4755C80.1331 91.2821 80.0399 91.04 80.0078 90.7491C79.9717 90.4532 79.982 90.012 80.0389 89.4254L80.4391 84.085C80.5003 83.295 80.4921 82.6687 80.4145 82.206C80.342 81.7392 80.1799 81.348 79.9283 81.0324C79.5792 80.5946 79.154 80.3591 78.6528 80.3258C78.1476 80.2874 77.6608 80.4549 77.1925 80.8284C76.3984 81.4616 76.1755 82.3097 76.5236 83.3728C76.5922 83.7094 76.5979 83.988 76.5406 84.2086C76.4884 84.4251 76.3631 84.6125 76.1646 84.7708C75.9101 84.9737 75.6364 85.0587 75.3437 85.0257C75.0519 84.9836 74.8046 84.8353 74.6016 84.5808C74.2363 84.1227 74.0368 83.5698 74.0033 82.922C73.9697 82.2743 74.1217 81.6035 74.4593 80.9096C74.798 80.2065 75.3007 79.5891 75.9675 79.0573C76.9753 78.2536 78.0283 77.8719 79.1263 77.9122C80.2203 77.9475 81.1103 78.3952 81.7963 79.2554C82.2103 79.7746 82.4818 80.3866 82.6109 81.0914C82.7359 81.7911 82.7441 82.7464 82.6355 83.9572L82.2777 88.4893L82.3568 88.5886L85.9377 85.733C86.238 85.4935 86.533 85.3831 86.8228 85.4019C87.1135 85.4115 87.3645 85.5486 87.5756 85.8133C87.7826 86.0729 87.8584 86.3455 87.8031 86.6311C87.7528 86.9127 87.5775 87.1732 87.2772 87.4127L82.1312 91.5165C81.7952 91.7844 81.4585 91.9156 81.1209 91.91C80.7885 91.9003 80.5106 91.7555 80.2873 91.4755ZM87.3222 83.7795C87.1314 83.5403 87.0494 83.2809 87.0763 83.0013C87.1032 82.7217 87.2337 82.4886 87.4678 82.3019C87.7885 82.0462 88.2308 82.0057 88.7949 82.1804C89.8202 82.5368 90.7656 82.37 91.6309 81.6799C92.2009 81.2253 92.5428 80.7195 92.6566 80.1625C92.7754 79.6014 92.646 79.0842 92.2685 78.6108C91.891 78.1375 91.4135 77.8937 90.836 77.8796C90.2545 77.8604 89.6837 78.0741 89.1238 78.5206L88.3756 79.1173C88.1465 79.2999 87.8948 79.3758 87.6203 79.3449C87.3469 79.3048 87.1168 79.1677 86.9301 78.9335C86.7474 78.7045 86.669 78.4548 86.6948 78.1843C86.7257 77.9099 86.8557 77.6813 87.0848 77.4986L87.7948 76.9324C88.2631 76.5589 88.5404 76.113 88.6266 75.5946C88.7179 75.0721 88.5971 74.6022 88.2642 74.1848C87.9314 73.7674 87.5088 73.5507 86.9963 73.5347C86.4799 73.5135 85.9798 73.6958 85.4963 74.0814C84.7379 74.6862 84.4311 75.4971 84.5759 76.5141C84.6453 77.05 84.5043 77.4581 84.1531 77.7381C83.9088 77.933 83.6468 78.017 83.3673 77.9901C83.0836 77.9581 82.8424 77.8175 82.6435 77.568C82.1442 76.942 82.0438 76.1269 82.3422 75.1228C82.6407 74.1187 83.2785 73.227 84.2558 72.4476C85.3095 71.6073 86.3747 71.1784 87.4514 71.1607C88.5333 71.139 89.399 71.5354 90.0484 72.3498C90.499 72.9148 90.7191 73.5719 90.7088 74.3213C90.6985 75.0706 90.4617 75.6925 89.9983 76.1869L90.1018 76.3167C90.7868 75.8704 91.5333 75.7206 92.3414 75.8672C93.1454 76.0088 93.8113 76.4104 94.339 77.0721C95.0656 77.9832 95.2938 79.0212 95.0235 80.186C94.7544 81.3416 94.0446 82.3781 92.8942 83.2955C91.8813 84.1033 90.8283 84.5475 89.7351 84.6282C88.6379 84.7037 87.8336 84.4209 87.3222 83.7795Z" fill="#202020"/>
</g>
<g filter="url(#filter6_i_4866_298)">
<path d="M115.123 37.614C114.372 33.0203 117.323 28.6346 121.861 27.5989L152.263 20.6598C156.801 19.6241 161.362 22.2952 162.679 26.7597L174.338 66.2908C175.777 71.1675 172.802 76.2466 167.845 77.378L132.431 85.4611C127.474 86.5925 122.59 83.307 121.77 78.2892L115.123 37.614Z" fill="#9383F1"/>
</g>
<g filter="url(#filter7_d_4866_298)">
<path d="M135.172 59.2252C135.104 58.9269 135.142 58.6679 135.285 58.4481C135.434 58.2206 135.651 58.0742 135.936 58.009C136.222 57.9439 136.571 58.0111 136.984 58.2107C137.746 58.6243 138.502 58.7457 139.251 58.5748C140.184 58.3618 140.804 57.7997 141.11 56.8884C141.415 55.9707 141.397 54.7693 141.058 53.284L140.973 53.3036C140.876 53.9602 140.584 54.5275 140.099 55.0055C139.62 55.4821 139.013 55.8044 138.276 55.9725C137.077 56.2463 136.009 56.0727 135.072 55.4517C134.134 54.8243 133.521 53.8759 133.231 52.6065C132.924 51.2609 133.111 50.0763 133.792 49.0527C134.472 48.0227 135.519 47.3462 136.935 47.0232C138.522 46.661 139.879 46.9621 141.008 47.9267C142.142 48.8897 142.952 50.4312 143.435 52.5512C143.942 54.7727 143.877 56.5773 143.239 57.9651C142.599 59.3465 141.429 60.2313 139.728 60.6196C138.592 60.8789 137.567 60.8523 136.654 60.5397C135.8 60.2473 135.306 59.8091 135.172 59.2252ZM140.153 50.9864C139.99 50.2692 139.647 49.7331 139.125 49.378C138.603 49.023 138.009 48.9215 137.343 49.0736C136.683 49.2243 136.198 49.572 135.888 50.1169C135.578 50.6617 135.505 51.2895 135.667 52.0004C135.829 52.7113 136.167 53.2386 136.679 53.5824C137.192 53.9262 137.781 54.0221 138.448 53.8699C139.114 53.7178 139.604 53.3757 139.916 52.8436C140.235 52.31 140.314 51.691 140.153 50.9864ZM144.327 52.7885L144.188 52.1792C143.738 50.2116 143.822 48.5431 144.437 47.1739C145.059 45.8032 146.138 44.9425 147.674 44.5919C149.217 44.2399 150.555 44.5454 151.69 45.5085C152.831 46.4701 153.628 47.9411 154.08 49.9214L154.219 50.5307C154.666 52.492 154.577 54.1619 153.95 55.5404C153.328 56.9111 152.252 57.771 150.722 58.1201C149.192 58.4693 147.857 58.163 146.716 57.2014C145.574 56.2335 144.777 54.7625 144.327 52.7885ZM146.76 51.602L146.893 52.1828C147.206 53.5538 147.66 54.5786 148.256 55.2574C148.858 55.9347 149.527 56.1893 150.263 56.0212C150.999 55.8532 151.489 55.3342 151.731 54.4642C151.979 53.5928 151.947 52.4716 151.634 51.1006L151.502 50.5198C151.19 49.1552 150.733 48.1342 150.131 47.4569C149.536 46.7782 148.87 46.5228 148.134 46.6909C147.397 46.8589 146.905 47.3787 146.656 48.2501C146.413 49.1137 146.447 50.231 146.76 51.602Z" fill="#202020"/>
</g>
<g filter="url(#filter8_dddi_4866_298)">
<path d="M189.902 26.7598C191.219 22.2953 195.78 19.6242 200.318 20.6599L230.72 27.5989C235.258 28.6347 238.208 33.0203 237.458 37.614L230.811 78.2892C229.991 83.3071 225.107 86.5926 220.15 85.4612L184.735 77.378C179.778 76.2466 176.804 71.1675 178.242 66.2908L189.902 26.7598Z" fill="#5CFFEB"/>
<path d="M192.3 27.4671C193.243 24.2688 196.511 22.3552 199.762 23.0972L230.163 30.0363C233.414 30.7783 235.528 33.92 234.99 37.2108L228.343 77.886C227.756 81.4807 224.257 83.8344 220.706 83.0239L185.292 74.9407C181.741 74.1302 179.61 70.4917 180.64 66.9981L192.3 27.4671Z" stroke="white" stroke-opacity="0.6" stroke-width="5"/>
</g>
<g filter="url(#filter9_d_4866_298)">
<path d="M198.712 54.9575C198.78 54.6592 198.927 54.4422 199.151 54.3065C199.384 54.1659 199.643 54.1282 199.928 54.1934C200.214 54.2586 200.499 54.4706 200.785 54.8296C201.292 55.533 201.92 55.9702 202.669 56.1412C203.602 56.3541 204.404 56.1165 205.076 55.4283C205.748 54.7338 206.254 53.6439 206.593 52.1586L206.507 52.1391C206.135 52.6884 205.626 53.0732 204.982 53.2934C204.344 53.515 203.656 53.5418 202.92 53.3737C201.721 53.0999 200.834 52.4801 200.259 51.5143C199.687 50.5422 199.545 49.4214 199.835 48.152C200.142 46.8063 200.824 45.8202 201.882 45.1936C202.942 44.5605 204.179 44.4056 205.595 44.7286C207.181 45.0908 208.274 45.9512 208.872 47.3097C209.476 48.6697 209.537 50.4097 209.053 52.5297C208.546 54.7512 207.704 56.3487 206.527 57.3221C205.351 58.2891 203.912 58.5785 202.211 58.1903C201.075 57.931 200.164 57.4625 199.477 56.7849C198.834 56.1506 198.579 55.5415 198.712 54.9575ZM206.775 49.6959C206.938 48.9786 206.862 48.3469 206.546 47.8006C206.23 47.2543 205.739 46.9052 205.072 46.753C204.412 46.6024 203.824 46.7053 203.309 47.0618C202.794 47.4183 202.455 47.9519 202.293 48.6628C202.13 49.3737 202.205 49.9952 202.518 50.5273C202.831 51.0595 203.32 51.4016 203.987 51.5537C204.653 51.7058 205.243 51.61 205.755 51.2662C206.274 50.9238 206.614 50.4004 206.775 49.6959ZM209.228 57.3578C209.297 57.0595 209.443 56.8425 209.668 56.7068C209.9 56.5662 210.159 56.5285 210.445 56.5937C210.73 56.6588 211.016 56.8709 211.301 57.2299C211.808 57.9333 212.436 58.3705 213.185 58.5414C214.118 58.7544 214.921 58.5168 215.592 57.8286C216.265 57.134 216.77 56.0441 217.109 54.5589L217.024 54.5393C216.651 55.0887 216.143 55.4735 215.498 55.6937C214.86 55.9153 214.173 55.942 213.436 55.774C212.237 55.5002 211.35 54.8804 210.776 53.9146C210.203 52.9424 210.061 51.8217 210.351 50.5522C210.658 49.2066 211.341 48.2205 212.399 47.5938C213.458 46.9608 214.695 46.8058 216.111 47.1289C217.698 47.4911 218.79 48.3514 219.388 49.71C219.993 51.07 220.053 52.81 219.569 54.93C219.062 57.1515 218.22 58.7489 217.043 59.7223C215.867 60.6894 214.429 60.9788 212.728 60.5906C211.592 60.3312 210.68 59.8628 209.993 59.1852C209.35 58.5509 209.095 57.9418 209.228 57.3578ZM217.291 52.0961C217.455 51.3789 217.378 50.7471 217.062 50.2009C216.746 49.6546 216.255 49.3054 215.589 49.1533C214.929 49.0026 214.341 49.1056 213.825 49.462C213.31 49.8185 212.971 50.3522 212.809 51.0631C212.647 51.774 212.722 52.3955 213.034 52.9276C213.347 53.4597 213.836 53.8018 214.503 53.954C215.169 54.1061 215.759 54.0102 216.271 53.6664C216.79 53.3241 217.13 52.8007 217.291 52.0961Z" fill="#202020"/>
</g>
<g filter="url(#filter10_i_4866_298)">
<path d="M261.985 49.4255C265.108 45.9745 270.376 45.5469 274.016 48.449L298.396 67.8917C302.035 70.7938 302.791 76.0253 300.121 79.8384L276.484 113.602C273.568 117.767 267.743 118.608 263.768 115.438L235.367 92.7892C231.392 89.6192 230.916 83.7525 234.328 79.9828L261.985 49.4255Z" fill="#B1EEBF"/>
</g>
<g filter="url(#filter11_d_4866_298)">
<path d="M256.809 79.1269C256.963 78.9335 257.179 78.7888 257.455 78.6928C257.735 78.5917 258.168 78.5036 258.752 78.4284L264.048 77.6302C264.832 77.5141 265.441 77.3668 265.874 77.1882C266.313 77.0136 266.659 76.7686 266.91 76.453C267.259 76.0153 267.395 75.5484 267.315 75.0523C267.24 74.5512 266.969 74.1139 266.501 73.7404C265.706 73.1072 264.83 73.0785 263.871 73.6545C263.558 73.7963 263.288 73.8638 263.06 73.8571C262.837 73.8543 262.627 73.7738 262.428 73.6155C262.174 73.4126 262.03 73.1647 261.997 72.8719C261.973 72.5781 262.063 72.304 262.266 72.0495C262.631 71.5914 263.126 71.2739 263.75 71.097C264.374 70.9202 265.062 70.9191 265.813 71.0938C266.574 71.2675 267.288 71.6203 267.955 72.152C268.962 72.9557 269.569 73.8973 269.774 74.9768C269.983 76.0512 269.744 77.0185 269.058 77.8787C268.644 78.3979 268.108 78.7988 267.45 79.0815C266.795 79.3591 265.866 79.5796 264.661 79.7431L260.163 80.4028L260.084 80.5021L263.665 83.3577C263.965 83.5972 264.138 83.8603 264.185 84.1469C264.24 84.4326 264.162 84.7077 263.951 84.9724C263.744 85.232 263.495 85.3666 263.204 85.3762C262.919 85.3898 262.626 85.2769 262.325 85.0374L257.179 80.9336C256.843 80.6657 256.641 80.3666 256.571 80.0362C256.506 79.71 256.586 79.4068 256.809 79.1269ZM265.639 84.9946C265.83 84.7553 266.056 84.6233 266.317 84.5985C266.588 84.5727 266.837 84.6511 267.066 84.8337C267.295 85.0164 267.461 85.3314 267.562 85.7786C267.714 86.6324 268.09 87.2988 268.691 87.7778C269.439 88.3745 270.265 88.5085 271.168 88.1797C272.076 87.8458 273.004 87.0833 273.954 85.8922L273.885 85.8374C273.311 86.1708 272.686 86.2968 272.01 86.2155C271.339 86.1383 270.708 85.8642 270.118 85.3933C269.156 84.6262 268.625 83.6829 268.527 82.5636C268.433 81.4392 268.792 80.368 269.603 79.35C270.464 78.2709 271.507 77.6786 272.732 77.573C273.961 77.4623 275.143 77.8596 276.278 78.7647C277.551 79.7795 278.161 81.0287 278.111 82.5122C278.065 83.9998 277.365 85.5936 276.009 87.2937C274.588 89.0752 273.137 90.1491 271.654 90.5154C270.175 90.8766 268.753 90.5133 267.389 89.4254C266.478 88.6988 265.86 87.8813 265.535 86.9728C265.231 86.1223 265.266 85.4628 265.639 84.9946ZM275.186 83.7521C275.645 83.1769 275.85 82.5747 275.802 81.9454C275.755 81.3161 275.464 80.7883 274.929 80.3621C274.4 79.94 273.826 79.7777 273.207 79.8752C272.588 79.9728 272.051 80.3066 271.596 80.8767C271.141 81.4467 270.939 82.0393 270.99 82.6544C271.041 83.2694 271.334 83.7901 271.868 84.2163C272.403 84.6425 272.975 84.8119 273.586 84.7246C274.202 84.6412 274.736 84.3171 275.186 83.7521Z" fill="#202020"/>
</g>
<g filter="url(#filter12_i_4866_298)">
<path d="M317.095 101.122C321.407 99.3679 326.339 101.268 328.358 105.462L341.888 133.558C343.908 137.751 342.319 142.793 338.259 145.07L302.314 165.234C297.879 167.721 292.266 165.951 290.06 161.371L274.299 128.642C272.093 124.061 274.209 118.569 278.919 116.653L317.095 101.122Z" fill="#90F98D"/>
</g>
<g filter="url(#filter13_d_4866_298)">
<path d="M304.152 123.072C306.211 122.081 307.998 121.74 309.513 122.051C311.034 122.359 312.171 123.293 312.922 124.853C313.439 125.927 313.63 126.962 313.496 127.959C313.438 128.362 313.322 128.715 313.149 129.015C312.981 129.312 312.78 129.517 312.545 129.63C312.281 129.758 312.026 129.776 311.78 129.685C311.534 129.594 311.345 129.41 311.212 129.135C311.071 128.841 311.056 128.444 311.168 127.942C311.387 127.121 311.343 126.391 311.035 125.751C310.622 124.895 309.942 124.42 308.994 124.328C308.055 124.238 306.885 124.523 305.483 125.184L305.521 125.263C306.142 125.217 306.744 125.386 307.326 125.77C307.915 126.152 308.368 126.674 308.688 127.337C309.219 128.44 309.292 129.514 308.906 130.559C308.524 131.611 307.758 132.413 306.608 132.967C305.353 133.571 304.147 133.657 302.992 133.223C301.839 132.795 300.95 131.93 300.323 130.628C299.571 129.068 299.575 127.606 300.335 126.243C301.003 125.033 302.275 123.976 304.152 123.072ZM303.41 126.529C302.753 126.845 302.313 127.303 302.088 127.903C301.867 128.508 301.907 129.125 302.209 129.752C302.506 130.368 302.948 130.769 303.537 130.956C304.131 131.139 304.762 131.07 305.431 130.748C306.088 130.431 306.526 129.982 306.744 129.4C306.962 128.818 306.92 128.213 306.618 127.586C306.321 126.97 305.872 126.561 305.269 126.36C304.669 126.165 304.05 126.221 303.41 126.529ZM305.028 140.4C304.361 139.015 304.146 137.742 304.382 136.581C304.623 135.417 305.272 134.581 306.328 134.072C307.073 133.714 307.828 133.632 308.594 133.827C309.368 134.024 310.014 134.465 310.531 135.148L310.663 135.085C310.554 134.349 310.649 133.69 310.946 133.106C311.243 132.522 311.711 132.076 312.35 131.768C313.283 131.319 314.232 131.339 315.197 131.828C316.165 132.323 316.944 133.183 317.535 134.409C318.125 135.635 318.311 136.778 318.091 137.837C317.874 138.903 317.3 139.66 316.367 140.109C315.733 140.414 315.092 140.499 314.441 140.365C313.8 140.233 313.225 139.895 312.718 139.352L312.586 139.415C312.795 140.24 312.735 141.016 312.407 141.745C312.085 142.471 311.554 143.012 310.815 143.368C309.765 143.874 308.704 143.854 307.632 143.308C306.565 142.759 305.698 141.79 305.028 140.4ZM312.37 136.896C312.638 137.454 313.019 137.831 313.511 138.027C314.011 138.227 314.514 138.205 315.019 137.962C315.517 137.722 315.839 137.347 315.983 136.836C316.133 136.323 316.076 135.791 315.81 135.24C315.545 134.688 315.164 134.311 314.67 134.109C314.18 133.904 313.687 133.921 313.188 134.161C312.684 134.404 312.353 134.784 312.197 135.3C312.047 135.813 312.104 136.345 312.37 136.896ZM306.757 139.6C307.076 140.263 307.523 140.719 308.099 140.969C308.678 141.225 309.254 141.215 309.829 140.938C310.404 140.661 310.775 140.216 310.941 139.601C311.11 138.992 311.035 138.356 310.716 137.693C310.394 137.024 309.942 136.566 309.36 136.319C308.779 136.071 308.201 136.086 307.626 136.363C307.051 136.64 306.682 137.081 306.519 137.687C306.355 138.294 306.435 138.931 306.757 139.6Z" fill="#202020"/>
</g>
<g filter="url(#filter14_i_4866_298)">
<path d="M344.317 171.611C348.963 171.902 352.582 175.754 352.582 180.409V211.592C352.582 216.247 348.963 220.099 344.317 220.39L303.183 222.961C298.108 223.278 293.819 219.248 293.819 214.163V177.838C293.819 172.753 298.108 168.723 303.183 169.04L344.317 171.611Z" fill="#F3CFE3"/>
</g>
<g filter="url(#filter15_d_4866_298)">
<path d="M317.869 186.476C318.117 186.476 318.364 186.554 318.611 186.71C318.865 186.866 319.204 187.15 319.627 187.56L323.553 191.202C324.132 191.743 324.627 192.127 325.037 192.355C325.447 192.589 325.854 192.706 326.258 192.706C326.818 192.706 327.267 192.521 327.605 192.15C327.951 191.779 328.123 191.293 328.123 190.695C328.123 189.679 327.599 188.976 326.551 188.585C326.245 188.429 326.023 188.26 325.887 188.077C325.75 187.902 325.682 187.687 325.682 187.433C325.682 187.107 325.786 186.84 325.994 186.632C326.209 186.43 326.479 186.329 326.805 186.329C327.391 186.329 327.947 186.518 328.475 186.896C329.002 187.273 329.432 187.81 329.764 188.507C330.102 189.21 330.271 189.988 330.271 190.841C330.271 192.13 329.913 193.191 329.197 194.025C328.488 194.858 327.583 195.275 326.482 195.275C325.818 195.275 325.171 195.105 324.539 194.767C323.914 194.428 323.162 193.839 322.283 192.999L318.963 189.894H318.836V194.474C318.836 194.858 318.738 195.157 318.543 195.372C318.354 195.594 318.09 195.704 317.752 195.704C317.42 195.704 317.16 195.594 316.971 195.372C316.782 195.157 316.688 194.858 316.688 194.474V187.892C316.688 187.462 316.795 187.117 317.01 186.857C317.225 186.603 317.511 186.476 317.869 186.476ZM323.025 196.569H323.65C325.669 196.569 327.277 197.022 328.475 197.927C329.673 198.838 330.271 200.082 330.271 201.657C330.271 203.239 329.676 204.476 328.484 205.368C327.293 206.266 325.682 206.716 323.65 206.716H323.025C321.014 206.716 319.406 206.257 318.201 205.339C317.003 204.427 316.404 203.187 316.404 201.618C316.404 200.049 317 198.815 318.191 197.917C319.389 197.018 321.001 196.569 323.025 196.569ZM323.641 199.206H323.045C321.639 199.206 320.538 199.421 319.744 199.85C318.95 200.287 318.553 200.882 318.553 201.637C318.553 202.393 318.95 202.985 319.744 203.415C320.538 203.851 321.639 204.069 323.045 204.069H323.641C325.04 204.069 326.137 203.851 326.932 203.415C327.726 202.985 328.123 202.393 328.123 201.637C328.123 200.882 327.726 200.287 326.932 199.85C326.144 199.421 325.047 199.206 323.641 199.206Z" fill="#202020"/>
</g>
<g filter="url(#filter16_i_4866_298)">
<path d="M338.259 246.93C342.318 249.207 343.907 254.248 341.888 258.442L328.358 286.537C326.338 290.731 321.406 292.631 317.094 290.877L278.918 275.346C274.208 273.43 272.092 267.938 274.298 263.357L290.059 230.629C292.265 226.048 297.879 224.278 302.313 226.766L338.259 246.93Z" fill="#B7E2EA"/>
</g>
<g filter="url(#filter17_d_4866_298)">
<path d="M308.974 248.9C309.25 249.033 309.429 249.224 309.511 249.473C309.596 249.731 309.575 249.992 309.448 250.256C309.321 250.52 309.051 250.751 308.637 250.949C307.839 251.287 307.273 251.802 306.939 252.494C306.524 253.356 306.577 254.191 307.099 254.999C307.626 255.809 308.576 256.545 309.949 257.206L309.987 257.127C309.534 256.642 309.272 256.06 309.201 255.383C309.127 254.711 309.254 254.035 309.582 253.355C310.116 252.246 310.917 251.519 311.987 251.174C313.062 250.832 314.186 250.944 315.359 251.509C316.603 252.108 317.412 252.992 317.788 254.163C318.169 255.337 318.045 256.578 317.415 257.886C316.709 259.352 315.627 260.226 314.169 260.507C312.709 260.793 310.999 260.465 309.04 259.521C306.987 258.533 305.617 257.356 304.93 255.992C304.249 254.631 304.287 253.164 305.044 251.592C305.549 250.542 306.209 249.758 307.022 249.239C307.784 248.753 308.434 248.64 308.974 248.9ZM312.31 257.931C312.972 258.25 313.605 258.317 314.208 258.13C314.811 257.943 315.261 257.542 315.557 256.926C315.851 256.316 315.882 255.72 315.649 255.138C315.416 254.557 314.971 254.108 314.314 253.791C313.657 253.475 313.035 253.41 312.446 253.596C311.858 253.782 311.415 254.184 311.119 254.8C310.822 255.415 310.784 256.011 311.006 256.588C311.224 257.17 311.659 257.617 312.31 257.931ZM303.454 258.246C303.677 258.354 303.866 258.532 304.021 258.78C304.182 259.031 304.364 259.433 304.567 259.986L306.524 264.971C306.812 265.709 307.091 266.27 307.361 266.653C307.629 267.042 307.945 267.325 308.309 267.5C308.813 267.743 309.298 267.77 309.764 267.583C310.236 267.398 310.602 267.036 310.862 266.496C311.303 265.581 311.136 264.721 310.361 263.914C310.153 263.64 310.027 263.392 309.983 263.168C309.936 262.95 309.967 262.727 310.078 262.498C310.219 262.205 310.428 262.01 310.707 261.913C310.988 261.824 311.275 261.85 311.568 261.992C312.096 262.246 312.516 262.657 312.827 263.226C313.138 263.795 313.292 264.466 313.289 265.237C313.289 266.018 313.104 266.792 312.734 267.561C312.175 268.722 311.392 269.523 310.385 269.963C309.384 270.406 308.388 270.389 307.397 269.911C306.798 269.623 306.288 269.189 305.866 268.61C305.45 268.034 305.028 267.177 304.6 266.039L302.956 261.801L302.842 261.745L300.855 265.872C300.688 266.218 300.47 266.445 300.201 266.554C299.935 266.672 299.649 266.657 299.344 266.51C299.045 266.366 298.859 266.153 298.784 265.872C298.708 265.597 298.752 265.286 298.919 264.94L301.775 259.01C301.961 258.622 302.208 258.358 302.514 258.217C302.818 258.081 303.131 258.091 303.454 258.246Z" fill="#202020"/>
</g>
<g filter="url(#filter18_i_4866_298)">
<path d="M300.122 312.162C302.791 315.975 302.036 321.206 298.397 324.108L274.016 343.551C270.377 346.453 265.109 346.025 261.985 342.574L234.328 312.017C230.916 308.247 231.393 302.381 235.368 299.211L263.768 276.562C267.743 273.392 273.569 274.233 276.485 278.398L300.122 312.162Z" fill="#E7B1F4"/>
</g>
<g filter="url(#filter19_d_4866_298)">
<path d="M272.682 301.39C272.873 301.629 272.951 301.878 272.918 302.139C272.883 302.408 272.75 302.634 272.521 302.817C272.292 302.999 271.949 303.09 271.49 303.09C270.624 303.048 269.89 303.266 269.29 303.745C268.542 304.342 268.227 305.117 268.347 306.071C268.47 307.03 269.007 308.105 269.957 309.296L270.026 309.241C269.828 308.608 269.845 307.97 270.074 307.329C270.299 306.692 270.706 306.138 271.297 305.667C272.259 304.9 273.297 304.593 274.41 304.746C275.527 304.904 276.491 305.492 277.303 306.51C278.164 307.59 278.509 308.738 278.34 309.956C278.174 311.179 277.524 312.243 276.389 313.148C275.116 314.163 273.762 314.48 272.327 314.101C270.887 313.726 269.489 312.688 268.133 310.988C266.713 309.206 265.989 307.552 265.961 306.025C265.938 304.503 266.609 303.198 267.973 302.11C268.884 301.383 269.819 300.963 270.777 300.848C271.674 300.741 272.309 300.921 272.682 301.39ZM271.769 310.974C272.228 311.549 272.769 311.883 273.393 311.977C274.018 312.07 274.597 311.904 275.131 311.477C275.661 311.055 275.947 310.532 275.989 309.906C276.032 309.281 275.826 308.683 275.371 308.113C274.917 307.543 274.384 307.215 273.773 307.127C273.162 307.04 272.589 307.209 272.055 307.635C271.52 308.062 271.228 308.582 271.177 309.197C271.121 309.817 271.319 310.409 271.769 310.974ZM267.227 311.161L267.617 311.649C268.875 313.227 269.524 314.767 269.564 316.267C269.598 317.772 268.999 319.016 267.767 319.998C266.53 320.984 265.192 321.29 263.752 320.915C262.306 320.543 260.951 319.564 259.684 317.976L259.294 317.487C258.04 315.914 257.396 314.371 257.363 312.857C257.329 311.352 257.925 310.11 259.152 309.132C260.379 308.154 261.714 307.85 263.16 308.222C264.609 308.598 265.965 309.578 267.227 311.161ZM265.549 313.286L265.178 312.82C264.301 311.72 263.447 310.994 262.616 310.641C261.78 310.292 261.067 310.353 260.476 310.824C259.886 311.295 259.67 311.975 259.829 312.863C259.984 313.756 260.499 314.753 261.376 315.852L261.747 316.318C262.62 317.412 263.474 318.134 264.311 318.483C265.142 318.836 265.853 318.777 266.443 318.306C267.034 317.835 267.252 317.153 267.097 316.26C266.942 315.377 266.426 314.385 265.549 313.286Z" fill="#202020"/>
</g>
<g filter="url(#filter20_i_4866_298)">
<path d="M237.457 354.386C238.208 358.98 235.257 363.365 230.719 364.401L200.317 371.34C195.779 372.376 191.218 369.705 189.901 365.24L178.242 325.709C176.803 320.833 179.778 315.753 184.735 314.622L220.15 306.539C225.106 305.407 229.99 308.693 230.81 313.711L237.457 354.386Z" fill="#ABFCC5"/>
</g>
<g filter="url(#filter21_d_4866_298)">
<path d="M213.918 338.029C214.426 340.257 214.361 342.075 213.72 343.484C213.082 344.898 211.918 345.798 210.23 346.183C209.068 346.449 208.016 346.405 207.075 346.052C206.694 345.905 206.376 345.714 206.122 345.478C205.869 345.249 205.714 345.007 205.656 344.753C205.591 344.468 205.63 344.215 205.774 343.995C205.917 343.775 206.138 343.631 206.436 343.563C206.754 343.491 207.145 343.565 207.609 343.787C208.361 344.183 209.082 344.302 209.774 344.144C210.701 343.932 211.315 343.375 211.616 342.471C211.913 341.576 211.895 340.371 211.563 338.857L211.477 338.877C211.384 339.493 211.085 340.042 210.581 340.524C210.078 341.013 209.468 341.339 208.751 341.503C207.557 341.775 206.494 341.607 205.561 340.999C204.621 340.392 204.009 339.466 203.725 338.222C203.415 336.864 203.6 335.67 204.279 334.64C204.953 333.611 205.994 332.936 207.403 332.615C209.092 332.229 210.516 332.559 211.676 333.603C212.707 334.523 213.454 335.998 213.918 338.029ZM210.713 336.537C210.55 335.826 210.202 335.295 209.667 334.943C209.127 334.592 208.517 334.494 207.838 334.649C207.171 334.801 206.682 335.143 206.369 335.676C206.058 336.214 205.985 336.845 206.15 337.569C206.312 338.28 206.653 338.806 207.172 339.148C207.69 339.491 208.29 339.584 208.969 339.429C209.635 339.277 210.133 338.93 210.464 338.387C210.787 337.846 210.87 337.229 210.713 336.537Z" fill="#202020"/>
</g>
<g filter="url(#filter22_i_4866_298)">
<path d="M162.678 365.24C161.361 369.705 156.8 372.376 152.262 371.34L121.86 364.401C117.322 363.365 114.372 358.98 115.123 354.386L121.769 313.711C122.589 308.693 127.473 305.407 132.43 306.539L167.845 314.622C172.802 315.753 175.776 320.832 174.338 325.709L162.678 365.24Z" fill="#F4ADEC"/>
</g>
<g filter="url(#filter23_d_4866_298)">
<path d="M153.586 341.436C153.078 343.664 152.23 345.273 151.042 346.264C149.853 347.261 148.414 347.567 146.726 347.182C145.564 346.917 144.635 346.421 143.94 345.695C143.66 345.397 143.457 345.087 143.331 344.764C143.203 344.448 143.167 344.163 143.225 343.909C143.291 343.623 143.436 343.413 143.66 343.277C143.885 343.141 144.146 343.107 144.445 343.176C144.762 343.248 145.082 343.485 145.404 343.885C145.91 344.568 146.508 344.989 147.2 345.147C148.127 345.358 148.922 345.122 149.585 344.439C150.241 343.761 150.748 342.668 151.105 341.16L151.019 341.14C150.668 341.654 150.161 342.019 149.497 342.235C148.832 342.457 148.141 342.487 147.424 342.323C146.231 342.051 145.345 341.438 144.768 340.485C144.185 339.53 144.035 338.431 144.319 337.187C144.629 335.829 145.314 334.833 146.373 334.2C147.426 333.565 148.657 333.409 150.066 333.731C151.754 334.116 152.895 335.031 153.487 336.475C154.017 337.751 154.05 339.405 153.586 341.436ZM151.346 338.701C151.508 337.99 151.425 337.36 151.096 336.81C150.761 336.26 150.254 335.907 149.575 335.752C148.908 335.6 148.319 335.696 147.806 336.04C147.292 336.39 146.953 336.927 146.788 337.65C146.625 338.361 146.704 338.983 147.023 339.517C147.342 340.05 147.841 340.395 148.52 340.55C149.186 340.702 149.786 340.605 150.319 340.259C150.846 339.912 151.188 339.392 151.346 338.701ZM139.493 331.317C140.991 331.659 142.12 332.284 142.881 333.193C143.641 334.107 143.89 335.136 143.629 336.278C143.445 337.084 143.038 337.726 142.409 338.203C141.771 338.685 141.024 338.916 140.167 338.894L140.135 339.037C140.777 339.41 141.234 339.895 141.506 340.491C141.777 341.088 141.834 341.732 141.676 342.423C141.445 343.433 140.838 344.162 139.854 344.612C138.864 345.06 137.705 345.133 136.378 344.83C135.052 344.528 134.043 343.96 133.351 343.128C132.653 342.294 132.42 341.372 132.65 340.363C132.807 339.678 133.14 339.123 133.651 338.699C134.154 338.279 134.776 338.041 135.517 337.983L135.55 337.84C134.775 337.489 134.205 336.959 133.84 336.248C133.473 335.543 133.381 334.791 133.564 333.991C133.823 332.855 134.5 332.038 135.596 331.54C136.689 331.048 137.988 330.974 139.493 331.317ZM137.654 339.242C137.051 339.104 136.519 339.166 136.059 339.428C135.59 339.696 135.294 340.102 135.169 340.648C135.046 341.187 135.139 341.673 135.448 342.104C135.756 342.541 136.208 342.828 136.804 342.964C137.401 343.1 137.933 343.038 138.4 342.777C138.865 342.523 139.159 342.126 139.282 341.587C139.407 341.041 139.316 340.546 139.01 340.102C138.703 339.665 138.251 339.378 137.654 339.242ZM139.04 333.167C138.323 333.004 137.687 333.069 137.133 333.363C136.572 333.656 136.22 334.113 136.078 334.735C135.936 335.357 136.054 335.925 136.431 336.438C136.801 336.95 137.345 337.288 138.063 337.452C138.786 337.617 139.426 337.549 139.982 337.249C140.538 336.948 140.887 336.487 141.029 335.865C141.171 335.243 141.056 334.679 140.684 334.174C140.312 333.668 139.764 333.333 139.04 333.167Z" fill="#202020"/>
</g>
<g filter="url(#filter24_i_4866_298)">
<path d="M90.5955 342.574C87.472 346.025 82.2036 346.453 78.5645 343.551L54.1841 324.108C50.545 321.206 49.7895 315.975 52.459 312.162L76.0959 278.398C79.0118 274.233 84.8374 273.392 88.8125 276.562L117.213 299.211C121.188 302.381 121.664 308.248 118.252 312.017L90.5955 342.574Z" fill="#B0B3F1"/>
</g>
<g filter="url(#filter25_d_4866_298)">
<path d="M92.6786 317.139C91.2538 318.926 89.7914 320.008 88.2912 320.386C86.787 320.768 85.3579 320.42 84.004 319.34C83.0725 318.597 82.451 317.747 82.1394 316.791C82.0168 316.402 81.9684 316.034 81.9943 315.689C82.0162 315.348 82.1083 315.076 82.2706 314.872C82.4533 314.643 82.6753 314.516 82.9365 314.492C83.1978 314.467 83.448 314.55 83.6873 314.741C83.9418 314.943 84.1274 315.295 84.2441 315.797C84.4029 316.631 84.7598 317.27 85.3146 317.712C86.0577 318.305 86.8764 318.437 87.7707 318.109C88.6558 317.783 89.5865 317.018 90.5627 315.814L90.494 315.759C89.9546 316.07 89.3391 316.179 88.6476 316.086C87.952 315.997 87.3166 315.724 86.7414 315.265C85.7845 314.502 85.2528 313.566 85.1464 312.457C85.0348 311.343 85.3769 310.288 86.1725 309.29C87.0411 308.201 88.09 307.601 89.3191 307.49C90.5431 307.376 91.7201 307.769 92.8501 308.67C94.204 309.75 94.8344 311.069 94.7412 312.626C94.6651 314.006 93.9775 315.511 92.6786 317.139ZM91.8467 313.703C92.3013 313.133 92.4997 312.529 92.4417 311.892C92.3787 311.25 92.0749 310.712 91.5303 310.278C90.9958 309.852 90.4231 309.682 89.8122 309.77C89.1972 309.862 88.6583 310.199 88.1956 310.779C87.7409 311.349 87.5416 311.944 87.5974 312.563C87.6533 313.182 87.9535 313.709 88.4982 314.143C89.0326 314.569 89.615 314.742 90.2452 314.662C90.8704 314.577 91.4042 314.258 91.8467 313.703ZM82.4712 302.317L81.6918 303.294L85.5017 306.332C85.8937 306.645 86.1224 306.99 86.1881 307.367C86.2487 307.74 86.1369 308.105 85.8527 308.461C85.6132 308.761 85.1679 309.064 84.5166 309.369C82.327 310.329 79.9699 311.201 77.4455 311.986C76.7514 312.199 76.1913 312.285 75.7652 312.245C75.334 312.201 74.92 312.021 74.5229 311.704C74.0088 311.294 73.7102 310.844 73.6271 310.353C73.5389 309.858 73.6754 309.384 74.0367 308.931L78.4206 303.433L77.9091 303.025C77.6342 302.806 77.4808 302.555 77.4488 302.271C77.4128 301.993 77.4983 301.724 77.7053 301.464C77.9083 301.209 78.1475 301.071 78.423 301.049C78.6935 301.024 78.9686 301.122 79.2486 301.346L79.7601 301.754L80.5395 300.776C80.7993 300.451 81.0908 300.262 81.4141 300.212C81.7333 300.167 82.043 300.264 82.3433 300.504C82.6436 300.743 82.8073 301.023 82.8342 301.345C82.852 301.667 82.731 301.991 82.4712 302.317ZM83.5285 307.507L80.3523 304.974L76.218 310.158L76.3249 310.243C77.2588 309.939 78.4524 309.512 79.9055 308.964C81.3586 308.416 82.5521 307.948 83.4859 307.56L83.5285 307.507Z" fill="#202020"/>
</g>
<g filter="url(#filter26_i_4866_298)">
<path d="M35.487 290.878C31.1755 292.632 26.2433 290.732 24.2237 286.538L10.6936 258.442C8.67404 254.249 10.2633 249.207 14.3228 246.93L50.2682 226.766C54.7026 224.279 60.3162 226.049 62.5222 230.629L78.2833 263.358C80.4893 267.939 78.3729 273.431 73.6633 275.347L35.487 290.878Z" fill="#C3E4F5"/>
</g>
<g filter="url(#filter27_d_4866_298)">
<path d="M51.8854 267.482C51.5863 267.626 51.2946 267.658 51.0105 267.578C50.7176 267.496 50.5019 267.31 50.3635 267.023C50.1912 266.665 50.2307 266.259 50.4821 265.806C51.0408 264.851 51.1083 263.933 50.6846 263.053C50.3654 262.39 49.8958 261.948 49.276 261.726C48.6474 261.501 48.0018 261.548 47.3389 261.868C46.6996 262.176 46.2793 262.631 46.0782 263.234C45.8684 263.833 45.916 264.45 46.2211 265.083C46.512 265.687 46.9943 266.156 47.6678 266.489C48.0004 266.64 48.243 266.776 48.3955 266.898C48.5452 267.013 48.661 267.156 48.7429 267.326C48.9181 267.69 48.9377 268.038 48.8017 268.371C48.6598 268.707 48.3838 268.959 47.9737 269.128L43.2944 270.98C42.4391 271.32 41.7799 271.008 41.3166 270.046L38.9184 265.067C38.7489 264.715 38.7055 264.399 38.7883 264.121C38.8623 263.84 39.0519 263.626 39.3569 263.479C39.6619 263.332 39.9461 263.314 40.2094 263.426C40.4668 263.54 40.6817 263.777 40.854 264.134L43.0446 268.683L46.2692 267.434L46.2098 267.311C45.8294 267.241 45.4439 267.026 45.0532 266.665C44.6626 266.303 44.343 265.865 44.0944 265.349C43.5436 264.205 43.4566 263.101 43.8334 262.038C44.2103 260.975 44.9794 260.164 46.1408 259.605C47.4195 258.989 48.6539 258.911 49.8438 259.372C51.0338 259.832 51.9578 260.745 52.616 262.112C53.1725 263.268 53.3658 264.367 53.196 265.41C53.0203 266.455 52.5835 267.146 51.8854 267.482ZM47.6858 251.874C48.3525 253.259 48.568 254.531 48.3323 255.693C48.0908 256.857 47.4422 257.693 46.3863 258.202C45.6414 258.56 44.886 258.642 44.1202 258.447C43.3456 258.25 42.6999 257.809 42.183 257.126L42.051 257.189C42.1595 257.925 42.0653 258.584 41.7683 259.168C41.4714 259.752 41.0032 260.198 40.3639 260.506C39.4312 260.955 38.4823 260.935 37.517 260.446C36.5488 259.951 35.7696 259.091 35.1792 257.865C34.5888 256.639 34.4034 255.496 34.623 254.436C34.8397 253.371 35.4144 252.614 36.3471 252.165C36.9806 251.86 37.6224 251.774 38.2727 251.909C38.9143 252.041 39.4887 252.379 39.996 252.922L40.128 252.858C39.9189 252.034 39.9785 251.258 40.3067 250.529C40.6291 249.803 41.1598 249.262 41.8989 248.906C42.9488 248.4 44.0099 248.42 45.0821 248.966C46.1484 249.515 47.0163 250.484 47.6858 251.874ZM40.3439 255.378C40.0756 254.82 39.6954 254.443 39.2033 254.247C38.7025 254.047 38.1999 254.069 37.6954 254.312C37.1968 254.552 36.8753 254.927 36.7309 255.437C36.5806 255.951 36.6382 256.483 36.9037 257.034C37.1692 257.586 37.5495 257.963 38.0444 258.165C38.5334 258.37 39.0273 258.353 39.5258 258.113C40.0303 257.87 40.3606 257.49 40.5168 256.974C40.6671 256.461 40.6095 255.929 40.3439 255.378ZM45.9574 252.674C45.6382 252.011 45.1907 251.555 44.615 251.305C44.0364 251.049 43.4597 251.059 42.8849 251.336C42.31 251.613 41.9394 252.058 41.7731 252.673C41.6039 253.282 41.6789 253.918 41.9981 254.581C42.3201 255.25 42.7719 255.708 43.3535 255.955C43.9351 256.203 44.5133 256.188 45.0882 255.911C45.663 255.634 46.0321 255.193 46.1954 254.586C46.3588 253.98 46.2794 253.343 45.9574 252.674Z" fill="#202020"/>
</g>
<defs>
<filter id="filter0_i_4866_298" x="0" y="169.021" width="58.7637" height="55.4251" filterUnits="userSpaceOnUse" color-interpolation-filters="sRGB">
<feFlood flood-opacity="0" result="BackgroundImageFix"/>
<feBlend mode="normal" in="SourceGraphic" in2="BackgroundImageFix" result="shape"/>
<feColorMatrix in="SourceAlpha" type="matrix" values="0 0 0 0 0 0 0 0 0 0 0 0 0 0 0 0 0 0 127 0" result="hardAlpha"/>
<feOffset dy="1.46909"/>
<feGaussianBlur stdDeviation="0.734544"/>
<feComposite in2="hardAlpha" operator="arithmetic" k2="-1" k3="1"/>
<feColorMatrix type="matrix" values="0 0 0 0 0.992157 0 0 0 0 0.992157 0 0 0 0 0.992157 0 0 0 0.55 0"/>
<feBlend mode="normal" in2="shape" result="effect1_innerShadow_4866_298"/>
</filter>
<filter id="filter1_d_4866_298" x="16.4342" y="180.965" width="25.6199" height="31.9832" filterUnits="userSpaceOnUse" color-interpolation-filters="sRGB">
<feFlood flood-opacity="0" result="BackgroundImageFix"/>
<feColorMatrix in="SourceAlpha" type="matrix" values="0 0 0 0 0 0 0 0 0 0 0 0 0 0 0 0 0 0 127 0" result="hardAlpha"/>
<feOffset dy="0.734544"/>
<feGaussianBlur stdDeviation="2.93818"/>
<feComposite in2="hardAlpha" operator="out"/>
<feColorMatrix type="matrix" values="0 0 0 0 0.12549 0 0 0 0 0.12549 0 0 0 0 0.12549 0 0 0 0.25 0"/>
<feBlend mode="normal" in2="BackgroundImageFix" result="effect1_dropShadow_4866_298"/>
<feBlend mode="normal" in="SourceGraphic" in2="effect1_dropShadow_4866_298" result="shape"/>
</filter>
<filter id="filter2_i_4866_298" x="9.81836" y="100.471" width="69.3398" height="67.3617" filterUnits="userSpaceOnUse" color-interpolation-filters="sRGB">
<feFlood flood-opacity="0" result="BackgroundImageFix"/>
<feBlend mode="normal" in="SourceGraphic" in2="BackgroundImageFix" result="shape"/>
<feColorMatrix in="SourceAlpha" type="matrix" values="0 0 0 0 0 0 0 0 0 0 0 0 0 0 0 0 0 0 127 0" result="hardAlpha"/>
<feOffset dy="1.46909"/>
<feGaussianBlur stdDeviation="0.734544"/>
<feComposite in2="hardAlpha" operator="arithmetic" k2="-1" k3="1"/>
<feColorMatrix type="matrix" values="0 0 0 0 0.992157 0 0 0 0 0.992157 0 0 0 0 0.992157 0 0 0 0.55 0"/>
<feBlend mode="normal" in2="shape" result="effect1_innerShadow_4866_298"/>
</filter>
<filter id="filter3_d_4866_298" x="28.108" y="116.898" width="31.2976" height="32.6502" filterUnits="userSpaceOnUse" color-interpolation-filters="sRGB">
<feFlood flood-opacity="0" result="BackgroundImageFix"/>
<feColorMatrix in="SourceAlpha" type="matrix" values="0 0 0 0 0 0 0 0 0 0 0 0 0 0 0 0 0 0 127 0" result="hardAlpha"/>
<feOffset dy="0.734544"/>
<feGaussianBlur stdDeviation="2.93818"/>
<feComposite in2="hardAlpha" operator="out"/>
<feColorMatrix type="matrix" values="0 0 0 0 0.12549 0 0 0 0 0.12549 0 0 0 0 0.12549 0 0 0 0.25 0"/>
<feBlend mode="normal" in2="BackgroundImageFix" result="effect1_dropShadow_4866_298"/>
<feBlend mode="normal" in="SourceGraphic" in2="effect1_dropShadow_4866_298" result="shape"/>
</filter>
<filter id="filter4_i_4866_298" x="50.8672" y="46.5264" width="69.666" height="72.304" filterUnits="userSpaceOnUse" color-interpolation-filters="sRGB">
<feFlood flood-opacity="0" result="BackgroundImageFix"/>
<feBlend mode="normal" in="SourceGraphic" in2="BackgroundImageFix" result="shape"/>
<feColorMatrix in="SourceAlpha" type="matrix" values="0 0 0 0 0 0 0 0 0 0 0 0 0 0 0 0 0 0 127 0" result="hardAlpha"/>
<feOffset dy="1.46909"/>
<feGaussianBlur stdDeviation="0.734544"/>
<feComposite in2="hardAlpha" operator="arithmetic" k2="-1" k3="1"/>
<feColorMatrix type="matrix" values="0 0 0 0 0.992157 0 0 0 0 0.992157 0 0 0 0 0.992157 0 0 0 0.55 0"/>
<feBlend mode="normal" in2="shape" result="effect1_innerShadow_4866_298"/>
</filter>
<filter id="filter5_d_4866_298" x="66.5631" y="64.1883" width="36.1238" height="35.1345" filterUnits="userSpaceOnUse" color-interpolation-filters="sRGB">
<feFlood flood-opacity="0" result="BackgroundImageFix"/>
<feColorMatrix in="SourceAlpha" type="matrix" values="0 0 0 0 0 0 0 0 0 0 0 0 0 0 0 0 0 0 127 0" result="hardAlpha"/>
<feOffset dy="0.734544"/>
<feGaussianBlur stdDeviation="2.93818"/>
<feComposite in2="hardAlpha" operator="out"/>
<feColorMatrix type="matrix" values="0 0 0 0 0.12549 0 0 0 0 0.12549 0 0 0 0 0.12549 0 0 0 0.25 0"/>
<feBlend mode="normal" in2="BackgroundImageFix" result="effect1_dropShadow_4866_298"/>
<feBlend mode="normal" in="SourceGraphic" in2="effect1_dropShadow_4866_298" result="shape"/>
</filter>
<filter id="filter6_i_4866_298" x="115.006" y="20.4375" width="59.6953" height="66.7162" filterUnits="userSpaceOnUse" color-interpolation-filters="sRGB">
<feFlood flood-opacity="0" result="BackgroundImageFix"/>
<feBlend mode="normal" in="SourceGraphic" in2="BackgroundImageFix" result="shape"/>
<feColorMatrix in="SourceAlpha" type="matrix" values="0 0 0 0 0 0 0 0 0 0 0 0 0 0 0 0 0 0 127 0" result="hardAlpha"/>
<feOffset dy="1.46909"/>
<feGaussianBlur stdDeviation="0.734544"/>
<feComposite in2="hardAlpha" operator="arithmetic" k2="-1" k3="1"/>
<feColorMatrix type="matrix" values="0 0 0 0 0.992157 0 0 0 0 0.992157 0 0 0 0 0.992157 0 0 0 0.55 0"/>
<feBlend mode="normal" in2="shape" result="effect1_innerShadow_4866_298"/>
</filter>
<filter id="filter7_d_4866_298" x="126.327" y="38.3055" width="35.241" height="29.947" filterUnits="userSpaceOnUse" color-interpolation-filters="sRGB">
<feFlood flood-opacity="0" result="BackgroundImageFix"/>
<feColorMatrix in="SourceAlpha" type="matrix" values="0 0 0 0 0 0 0 0 0 0 0 0 0 0 0 0 0 0 127 0" result="hardAlpha"/>
<feOffset dy="0.734544"/>
<feGaussianBlur stdDeviation="2.93818"/>
<feComposite in2="hardAlpha" operator="out"/>
<feColorMatrix type="matrix" values="0 0 0 0 0.12549 0 0 0 0 0.12549 0 0 0 0 0.12549 0 0 0 0.25 0"/>
<feBlend mode="normal" in2="BackgroundImageFix" result="effect1_dropShadow_4866_298"/>
<feBlend mode="normal" in="SourceGraphic" in2="effect1_dropShadow_4866_298" result="shape"/>
</filter>
<filter id="filter8_dddi_4866_298" x="133.879" y="0.4375" width="137.695" height="160.247" filterUnits="userSpaceOnUse" color-interpolation-filters="sRGB">
<feFlood flood-opacity="0" result="BackgroundImageFix"/>
<feColorMatrix in="SourceAlpha" type="matrix" values="0 0 0 0 0 0 0 0 0 0 0 0 0 0 0 0 0 0 127 0" result="hardAlpha"/>
<feOffset dy="14"/>
<feGaussianBlur stdDeviation="17"/>
<feComposite in2="hardAlpha" operator="out"/>
<feColorMatrix type="matrix" values="0 0 0 0 0.179183 0 0 0 0 1 0 0 0 0 0.901992 0 0 0 1 0"/>
<feBlend mode="normal" in2="BackgroundImageFix" result="effect1_dropShadow_4866_298"/>
<feColorMatrix in="SourceAlpha" type="matrix" values="0 0 0 0 0 0 0 0 0 0 0 0 0 0 0 0 0 0 127 0" result="hardAlpha"/>
<feOffset dy="2"/>
<feGaussianBlur stdDeviation="0.5"/>
<feComposite in2="hardAlpha" operator="out"/>
<feColorMatrix type="matrix" values="0 0 0 0 0 0 0 0 0 0 0 0 0 0 0 0 0 0 0.25 0"/>
<feBlend mode="normal" in2="effect1_dropShadow_4866_298" result="effect2_dropShadow_4866_298"/>
<feColorMatrix in="SourceAlpha" type="matrix" values="0 0 0 0 0 0 0 0 0 0 0 0 0 0 0 0 0 0 127 0" result="hardAlpha"/>
<feOffset dx="-10" dy="41"/>
<feGaussianBlur stdDeviation="17"/>
<feComposite in2="hardAlpha" operator="out"/>
<feColorMatrix type="matrix" values="0 0 0 0 0.282353 0 0 0 0 0.780392 0 0 0 0 0.717647 0 0 0 1 0"/>
<feBlend mode="normal" in2="effect2_dropShadow_4866_298" result="effect3_dropShadow_4866_298"/>
<feBlend mode="normal" in="SourceGraphic" in2="effect3_dropShadow_4866_298" result="shape"/>
<feColorMatrix in="SourceAlpha" type="matrix" values="0 0 0 0 0 0 0 0 0 0 0 0 0 0 0 0 0 0 127 0" result="hardAlpha"/>
<feOffset dy="1.46909"/>
<feGaussianBlur stdDeviation="0.734544"/>
<feComposite in2="hardAlpha" operator="arithmetic" k2="-1" k3="1"/>
<feColorMatrix type="matrix" values="0 0 0 0 0.992157 0 0 0 0 0.992157 0 0 0 0 0.992157 0 0 0 0.55 0"/>
<feBlend mode="normal" in2="shape" result="effect4_innerShadow_4866_298"/>
</filter>
<filter id="filter9_d_4866_298" x="191.899" y="38.5066" width="35.0672" height="29.8992" filterUnits="userSpaceOnUse" color-interpolation-filters="sRGB">
<feFlood flood-opacity="0" result="BackgroundImageFix"/>
<feColorMatrix in="SourceAlpha" type="matrix" values="0 0 0 0 0 0 0 0 0 0 0 0 0 0 0 0 0 0 127 0" result="hardAlpha"/>
<feOffset dy="0.734544"/>
<feGaussianBlur stdDeviation="2.93818"/>
<feComposite in2="hardAlpha" operator="out"/>
<feColorMatrix type="matrix" values="0 0 0 0 0.12549 0 0 0 0 0.12549 0 0 0 0 0.12549 0 0 0 0.25 0"/>
<feBlend mode="normal" in2="BackgroundImageFix" result="effect1_dropShadow_4866_298"/>
<feBlend mode="normal" in="SourceGraphic" in2="effect1_dropShadow_4866_298" result="shape"/>
</filter>
<filter id="filter10_i_4866_298" x="232.049" y="46.5254" width="69.666" height="72.305" filterUnits="userSpaceOnUse" color-interpolation-filters="sRGB">
<feFlood flood-opacity="0" result="BackgroundImageFix"/>
<feBlend mode="normal" in="SourceGraphic" in2="BackgroundImageFix" result="shape"/>
<feColorMatrix in="SourceAlpha" type="matrix" values="0 0 0 0 0 0 0 0 0 0 0 0 0 0 0 0 0 0 127 0" result="hardAlpha"/>
<feOffset dy="1.46909"/>
<feGaussianBlur stdDeviation="0.734544"/>
<feComposite in2="hardAlpha" operator="arithmetic" k2="-1" k3="1"/>
<feColorMatrix type="matrix" values="0 0 0 0 0.992157 0 0 0 0 0.992157 0 0 0 0 0.992157 0 0 0 0.55 0"/>
<feBlend mode="normal" in2="shape" result="effect1_innerShadow_4866_298"/>
</filter>
<filter id="filter11_d_4866_298" x="249.911" y="64.1824" width="36.2371" height="35.2273" filterUnits="userSpaceOnUse" color-interpolation-filters="sRGB">
<feFlood flood-opacity="0" result="BackgroundImageFix"/>
<feColorMatrix in="SourceAlpha" type="matrix" values="0 0 0 0 0 0 0 0 0 0 0 0 0 0 0 0 0 0 127 0" result="hardAlpha"/>
<feOffset dy="0.734544"/>
<feGaussianBlur stdDeviation="2.93818"/>
<feComposite in2="hardAlpha" operator="out"/>
<feColorMatrix type="matrix" values="0 0 0 0 0.12549 0 0 0 0 0.12549 0 0 0 0 0.12549 0 0 0 0.25 0"/>
<feBlend mode="normal" in2="BackgroundImageFix" result="effect1_dropShadow_4866_298"/>
<feBlend mode="normal" in="SourceGraphic" in2="effect1_dropShadow_4866_298" result="shape"/>
</filter>
<filter id="filter12_i_4866_298" x="273.424" y="100.471" width="69.3398" height="67.3607" filterUnits="userSpaceOnUse" color-interpolation-filters="sRGB">
<feFlood flood-opacity="0" result="BackgroundImageFix"/>
<feBlend mode="normal" in="SourceGraphic" in2="BackgroundImageFix" result="shape"/>
<feColorMatrix in="SourceAlpha" type="matrix" values="0 0 0 0 0 0 0 0 0 0 0 0 0 0 0 0 0 0 127 0" result="hardAlpha"/>
<feOffset dy="1.46909"/>
<feGaussianBlur stdDeviation="0.734544"/>
<feComposite in2="hardAlpha" operator="arithmetic" k2="-1" k3="1"/>
<feColorMatrix type="matrix" values="0 0 0 0 0.992157 0 0 0 0 0.992157 0 0 0 0 0.992157 0 0 0 0.55 0"/>
<feBlend mode="normal" in2="shape" result="effect1_innerShadow_4866_298"/>
</filter>
<filter id="filter13_d_4866_298" x="292.213" y="114.833" width="33.4343" height="36.8494" filterUnits="userSpaceOnUse" color-interpolation-filters="sRGB">
<feFlood flood-opacity="0" result="BackgroundImageFix"/>
<feColorMatrix in="SourceAlpha" type="matrix" values="0 0 0 0 0 0 0 0 0 0 0 0 0 0 0 0 0 0 127 0" result="hardAlpha"/>
<feOffset dy="0.734544"/>
<feGaussianBlur stdDeviation="2.93818"/>
<feComposite in2="hardAlpha" operator="out"/>
<feColorMatrix type="matrix" values="0 0 0 0 0.12549 0 0 0 0 0.12549 0 0 0 0 0.12549 0 0 0 0.25 0"/>
<feBlend mode="normal" in2="BackgroundImageFix" result="effect1_dropShadow_4866_298"/>
<feBlend mode="normal" in="SourceGraphic" in2="effect1_dropShadow_4866_298" result="shape"/>
</filter>
<filter id="filter14_i_4866_298" x="293.818" y="169.022" width="58.7637" height="55.4251" filterUnits="userSpaceOnUse" color-interpolation-filters="sRGB">
<feFlood flood-opacity="0" result="BackgroundImageFix"/>
<feBlend mode="normal" in="SourceGraphic" in2="BackgroundImageFix" result="shape"/>
<feColorMatrix in="SourceAlpha" type="matrix" values="0 0 0 0 0 0 0 0 0 0 0 0 0 0 0 0 0 0 127 0" result="hardAlpha"/>
<feOffset dy="1.46909"/>
<feGaussianBlur stdDeviation="0.734544"/>
<feComposite in2="hardAlpha" operator="arithmetic" k2="-1" k3="1"/>
<feColorMatrix type="matrix" values="0 0 0 0 0.992157 0 0 0 0 0.992157 0 0 0 0 0.992157 0 0 0 0.55 0"/>
<feBlend mode="normal" in2="shape" result="effect1_innerShadow_4866_298"/>
</filter>
<filter id="filter15_d_4866_298" x="310.528" y="181.187" width="25.6199" height="32.1394" filterUnits="userSpaceOnUse" color-interpolation-filters="sRGB">
<feFlood flood-opacity="0" result="BackgroundImageFix"/>
<feColorMatrix in="SourceAlpha" type="matrix" values="0 0 0 0 0 0 0 0 0 0 0 0 0 0 0 0 0 0 127 0" result="hardAlpha"/>
<feOffset dy="0.734544"/>
<feGaussianBlur stdDeviation="2.93818"/>
<feComposite in2="hardAlpha" operator="out"/>
<feColorMatrix type="matrix" values="0 0 0 0 0.12549 0 0 0 0 0.12549 0 0 0 0 0.12549 0 0 0 0.25 0"/>
<feBlend mode="normal" in2="BackgroundImageFix" result="effect1_dropShadow_4866_298"/>
<feBlend mode="normal" in="SourceGraphic" in2="effect1_dropShadow_4866_298" result="shape"/>
</filter>
<filter id="filter16_i_4866_298" x="273.422" y="225.637" width="69.3398" height="67.3617" filterUnits="userSpaceOnUse" color-interpolation-filters="sRGB">
<feFlood flood-opacity="0" result="BackgroundImageFix"/>
<feBlend mode="normal" in="SourceGraphic" in2="BackgroundImageFix" result="shape"/>
<feColorMatrix in="SourceAlpha" type="matrix" values="0 0 0 0 0 0 0 0 0 0 0 0 0 0 0 0 0 0 127 0" result="hardAlpha"/>
<feOffset dy="1.46909"/>
<feGaussianBlur stdDeviation="0.734544"/>
<feComposite in2="hardAlpha" operator="arithmetic" k2="-1" k3="1"/>
<feColorMatrix type="matrix" values="0 0 0 0 0.992157 0 0 0 0 0.992157 0 0 0 0 0.992157 0 0 0 0.55 0"/>
<feBlend mode="normal" in2="shape" result="effect1_innerShadow_4866_298"/>
</filter>
<filter id="filter17_d_4866_298" x="292.262" y="242.35" width="33.1355" height="36.2117" filterUnits="userSpaceOnUse" color-interpolation-filters="sRGB">
<feFlood flood-opacity="0" result="BackgroundImageFix"/>
<feColorMatrix in="SourceAlpha" type="matrix" values="0 0 0 0 0 0 0 0 0 0 0 0 0 0 0 0 0 0 127 0" result="hardAlpha"/>
<feOffset dy="0.734544"/>
<feGaussianBlur stdDeviation="2.93818"/>
<feComposite in2="hardAlpha" operator="out"/>
<feColorMatrix type="matrix" values="0 0 0 0 0.12549 0 0 0 0 0.12549 0 0 0 0 0.12549 0 0 0 0.25 0"/>
<feBlend mode="normal" in2="BackgroundImageFix" result="effect1_dropShadow_4866_298"/>
<feBlend mode="normal" in="SourceGraphic" in2="effect1_dropShadow_4866_298" result="shape"/>
</filter>
<filter id="filter18_i_4866_298" x="232.049" y="274.639" width="69.666" height="72.304" filterUnits="userSpaceOnUse" color-interpolation-filters="sRGB">
<feFlood flood-opacity="0" result="BackgroundImageFix"/>
<feBlend mode="normal" in="SourceGraphic" in2="BackgroundImageFix" result="shape"/>
<feColorMatrix in="SourceAlpha" type="matrix" values="0 0 0 0 0 0 0 0 0 0 0 0 0 0 0 0 0 0 127 0" result="hardAlpha"/>
<feOffset dy="1.46909"/>
<feGaussianBlur stdDeviation="0.734544"/>
<feComposite in2="hardAlpha" operator="arithmetic" k2="-1" k3="1"/>
<feColorMatrix type="matrix" values="0 0 0 0 0.992157 0 0 0 0 0.992157 0 0 0 0 0.992157 0 0 0 0.55 0"/>
<feBlend mode="normal" in2="shape" result="effect1_innerShadow_4866_298"/>
</filter>
<filter id="filter19_d_4866_298" x="249.29" y="294.123" width="36.7703" height="35.655" filterUnits="userSpaceOnUse" color-interpolation-filters="sRGB">
<feFlood flood-opacity="0" result="BackgroundImageFix"/>
<feColorMatrix in="SourceAlpha" type="matrix" values="0 0 0 0 0 0 0 0 0 0 0 0 0 0 0 0 0 0 127 0" result="hardAlpha"/>
<feOffset dy="0.734544"/>
<feGaussianBlur stdDeviation="2.93818"/>
<feComposite in2="hardAlpha" operator="out"/>
<feColorMatrix type="matrix" values="0 0 0 0 0.12549 0 0 0 0 0.12549 0 0 0 0 0.12549 0 0 0 0.25 0"/>
<feBlend mode="normal" in2="BackgroundImageFix" result="effect1_dropShadow_4866_298"/>
<feBlend mode="normal" in="SourceGraphic" in2="effect1_dropShadow_4866_298" result="shape"/>
</filter>
<filter id="filter20_i_4866_298" x="177.879" y="306.315" width="59.6953" height="66.7162" filterUnits="userSpaceOnUse" color-interpolation-filters="sRGB">
<feFlood flood-opacity="0" result="BackgroundImageFix"/>
<feBlend mode="normal" in="SourceGraphic" in2="BackgroundImageFix" result="shape"/>
<feColorMatrix in="SourceAlpha" type="matrix" values="0 0 0 0 0 0 0 0 0 0 0 0 0 0 0 0 0 0 127 0" result="hardAlpha"/>
<feOffset dy="1.46909"/>
<feGaussianBlur stdDeviation="0.734544"/>
<feComposite in2="hardAlpha" operator="arithmetic" k2="-1" k3="1"/>
<feColorMatrix type="matrix" values="0 0 0 0 0.992157 0 0 0 0 0.992157 0 0 0 0 0.992157 0 0 0 0.55 0"/>
<feBlend mode="normal" in2="shape" result="effect1_innerShadow_4866_298"/>
</filter>
<filter id="filter21_d_4866_298" x="196.815" y="326.328" width="24.5652" height="27.4832" filterUnits="userSpaceOnUse" color-interpolation-filters="sRGB">
<feFlood flood-opacity="0" result="BackgroundImageFix"/>
<feColorMatrix in="SourceAlpha" type="matrix" values="0 0 0 0 0 0 0 0 0 0 0 0 0 0 0 0 0 0 127 0" result="hardAlpha"/>
<feOffset dy="0.734544"/>
<feGaussianBlur stdDeviation="2.93818"/>
<feComposite in2="hardAlpha" operator="out"/>
<feColorMatrix type="matrix" values="0 0 0 0 0.12549 0 0 0 0 0.12549 0 0 0 0 0.12549 0 0 0 0.25 0"/>
<feBlend mode="normal" in2="BackgroundImageFix" result="effect1_dropShadow_4866_298"/>
<feBlend mode="normal" in="SourceGraphic" in2="effect1_dropShadow_4866_298" result="shape"/>
</filter>
<filter id="filter22_i_4866_298" x="115.006" y="306.315" width="59.6953" height="66.7162" filterUnits="userSpaceOnUse" color-interpolation-filters="sRGB">
<feFlood flood-opacity="0" result="BackgroundImageFix"/>
<feBlend mode="normal" in="SourceGraphic" in2="BackgroundImageFix" result="shape"/>
<feColorMatrix in="SourceAlpha" type="matrix" values="0 0 0 0 0 0 0 0 0 0 0 0 0 0 0 0 0 0 127 0" result="hardAlpha"/>
<feOffset dy="1.46909"/>
<feGaussianBlur stdDeviation="0.734544"/>
<feComposite in2="hardAlpha" operator="arithmetic" k2="-1" k3="1"/>
<feColorMatrix type="matrix" values="0 0 0 0 0.992157 0 0 0 0 0.992157 0 0 0 0 0.992157 0 0 0 0.55 0"/>
<feBlend mode="normal" in2="shape" result="effect1_innerShadow_4866_298"/>
</filter>
<filter id="filter23_d_4866_298" x="125.475" y="325.021" width="35.4851" height="29.9851" filterUnits="userSpaceOnUse" color-interpolation-filters="sRGB">
<feFlood flood-opacity="0" result="BackgroundImageFix"/>
<feColorMatrix in="SourceAlpha" type="matrix" values="0 0 0 0 0 0 0 0 0 0 0 0 0 0 0 0 0 0 127 0" result="hardAlpha"/>
<feOffset dy="0.734544"/>
<feGaussianBlur stdDeviation="2.93818"/>
<feComposite in2="hardAlpha" operator="out"/>
<feColorMatrix type="matrix" values="0 0 0 0 0.12549 0 0 0 0 0.12549 0 0 0 0 0.12549 0 0 0 0.25 0"/>
<feBlend mode="normal" in2="BackgroundImageFix" result="effect1_dropShadow_4866_298"/>
<feBlend mode="normal" in="SourceGraphic" in2="effect1_dropShadow_4866_298" result="shape"/>
</filter>
<filter id="filter24_i_4866_298" x="50.8652" y="274.639" width="69.666" height="72.305" filterUnits="userSpaceOnUse" color-interpolation-filters="sRGB">
<feFlood flood-opacity="0" result="BackgroundImageFix"/>
<feBlend mode="normal" in="SourceGraphic" in2="BackgroundImageFix" result="shape"/>
<feColorMatrix in="SourceAlpha" type="matrix" values="0 0 0 0 0 0 0 0 0 0 0 0 0 0 0 0 0 0 127 0" result="hardAlpha"/>
<feOffset dy="1.46909"/>
<feGaussianBlur stdDeviation="0.734544"/>
<feComposite in2="hardAlpha" operator="arithmetic" k2="-1" k3="1"/>
<feColorMatrix type="matrix" values="0 0 0 0 0.992157 0 0 0 0 0.992157 0 0 0 0 0.992157 0 0 0 0.55 0"/>
<feBlend mode="normal" in2="shape" result="effect1_innerShadow_4866_298"/>
</filter>
<filter id="filter25_d_4866_298" x="65.5631" y="293.345" width="37.1863" height="35.9793" filterUnits="userSpaceOnUse" color-interpolation-filters="sRGB">
<feFlood flood-opacity="0" result="BackgroundImageFix"/>
<feColorMatrix in="SourceAlpha" type="matrix" values="0 0 0 0 0 0 0 0 0 0 0 0 0 0 0 0 0 0 127 0" result="hardAlpha"/>
<feOffset dy="0.734544"/>
<feGaussianBlur stdDeviation="2.93818"/>
<feComposite in2="hardAlpha" operator="out"/>
<feColorMatrix type="matrix" values="0 0 0 0 0.12549 0 0 0 0 0.12549 0 0 0 0 0.12549 0 0 0 0.25 0"/>
<feBlend mode="normal" in2="BackgroundImageFix" result="effect1_dropShadow_4866_298"/>
<feBlend mode="normal" in="SourceGraphic" in2="effect1_dropShadow_4866_298" result="shape"/>
</filter>
<filter id="filter26_i_4866_298" x="9.81836" y="225.638" width="69.3398" height="67.3607" filterUnits="userSpaceOnUse" color-interpolation-filters="sRGB">
<feFlood flood-opacity="0" result="BackgroundImageFix"/>
<feBlend mode="normal" in="SourceGraphic" in2="BackgroundImageFix" result="shape"/>
<feColorMatrix in="SourceAlpha" type="matrix" values="0 0 0 0 0 0 0 0 0 0 0 0 0 0 0 0 0 0 127 0" result="hardAlpha"/>
<feOffset dy="1.46909"/>
<feGaussianBlur stdDeviation="0.734544"/>
<feComposite in2="hardAlpha" operator="arithmetic" k2="-1" k3="1"/>
<feColorMatrix type="matrix" values="0 0 0 0 0.992157 0 0 0 0 0.992157 0 0 0 0 0.992157 0 0 0 0.55 0"/>
<feBlend mode="normal" in2="shape" result="effect1_innerShadow_4866_298"/>
</filter>
<filter id="filter27_d_4866_298" x="27.0651" y="242.06" width="33.3894" height="36.7527" filterUnits="userSpaceOnUse" color-interpolation-filters="sRGB">
<feFlood flood-opacity="0" result="BackgroundImageFix"/>
<feColorMatrix in="SourceAlpha" type="matrix" values="0 0 0 0 0 0 0 0 0 0 0 0 0 0 0 0 0 0 127 0" result="hardAlpha"/>
<feOffset dy="0.734544"/>
<feGaussianBlur stdDeviation="2.93818"/>
<feComposite in2="hardAlpha" operator="out"/>
<feColorMatrix type="matrix" values="0 0 0 0 0.12549 0 0 0 0 0.12549 0 0 0 0 0.12549 0 0 0 0.25 0"/>
<feBlend mode="normal" in2="BackgroundImageFix" result="effect1_dropShadow_4866_298"/>
<feBlend mode="normal" in="SourceGraphic" in2="effect1_dropShadow_4866_298" result="shape"/>
</filter>
</defs>
</svg>
