<svg width="354" height="374" viewBox="0 0 354 392" fill="none" xmlns="http://www.w3.org/2000/svg">
<g filter="url(#filter0_i_4866_298)">
<path d="M8.26469 220.389C3.61913 220.099 0 216.247 0 211.592L0 180.408C0 175.754 3.61913 171.901 8.26469 171.611L49.3992 169.04C54.4737 168.723 58.7635 172.753 58.7635 177.837V214.163C58.7635 219.247 54.4737 223.277 49.3991 222.96L8.26469 220.389Z" fill="#9984F6" stroke="#9984F6"/> <!--fill="#9984F6"-->
</g>
<g filter="url(#filter1_d_4866_298)">
<path d="M34.8691 204.404C34.6348 204.404 34.3678 204.326 34.0684 204.169L24.791 199.589H24.7129V205.058C24.7129 205.462 24.6185 205.778 24.4297 206.005C24.2344 206.227 23.974 206.337 23.6484 206.337C23.3229 206.337 23.0625 206.227 22.8672 206.005C22.6654 205.778 22.5645 205.462 22.5645 205.058V198.222C22.5645 197.825 22.6849 197.5 22.9258 197.246C23.1667 196.992 23.4857 196.865 23.8828 196.865C24.3711 196.865 24.9701 197.044 25.6797 197.402L35.2109 202.002C35.7708 202.294 36.0508 202.688 36.0508 203.183C36.0508 203.535 35.9401 203.828 35.7188 204.062C35.4974 204.29 35.2142 204.404 34.8691 204.404ZM33.082 195.775C32.776 195.775 32.5221 195.678 32.3203 195.482C32.1185 195.287 32.0176 195.04 32.0176 194.74C32.0176 194.33 32.2617 193.959 32.75 193.627C33.668 193.047 34.127 192.204 34.127 191.098C34.127 190.368 33.9447 189.786 33.5801 189.35C33.2155 188.907 32.7305 188.685 32.125 188.685C31.5195 188.685 31.0312 188.907 30.6602 189.35C30.2826 189.792 30.0938 190.372 30.0938 191.088V192.045C30.0938 192.338 29.9961 192.582 29.8008 192.777C29.599 192.966 29.3483 193.06 29.0488 193.06C28.7559 193.06 28.5117 192.966 28.3164 192.777C28.1211 192.582 28.0234 192.338 28.0234 192.045V191.137C28.0234 190.538 27.8477 190.043 27.4961 189.652C27.1445 189.255 26.7018 189.057 26.168 189.057C25.6341 189.057 25.2012 189.252 24.8691 189.643C24.5306 190.033 24.3613 190.538 24.3613 191.156C24.3613 192.126 24.804 192.872 25.6895 193.393C26.1517 193.672 26.3828 194.037 26.3828 194.486C26.3828 194.799 26.2852 195.056 26.0898 195.258C25.888 195.46 25.6276 195.56 25.3086 195.56C24.5078 195.56 23.8079 195.131 23.209 194.271C22.61 193.412 22.3105 192.357 22.3105 191.107C22.3105 189.76 22.6393 188.659 23.2969 187.807C23.9544 186.947 24.804 186.518 25.8457 186.518C26.5684 186.518 27.2194 186.755 27.7988 187.23C28.3783 187.706 28.7168 188.279 28.8145 188.949H28.9805C29.0586 188.135 29.4069 187.458 30.0254 186.918C30.6374 186.378 31.3665 186.107 32.2129 186.107C33.3783 186.107 34.332 186.576 35.0742 187.514C35.8099 188.445 36.1777 189.646 36.1777 191.117C36.1777 192.413 35.8685 193.513 35.25 194.418C34.625 195.323 33.9023 195.775 33.082 195.775Z" fill="#000000"/> <!--fill="#202020"-->
</g>
<g filter="url(#filter2_i_4866_298)">
<path d="M14.3225 145.07C10.263 142.793 8.67371 137.752 10.6933 133.558L24.2234 105.463C26.243 101.269 31.1752 99.3683 35.4867 101.122L73.663 116.654C78.3726 118.57 80.489 124.062 78.283 128.643L62.5219 161.371C60.3159 165.952 54.7022 167.722 50.2679 165.234L14.3225 145.07Z" fill="#C2F2CA" stroke="#C2F2CA"/> <!--fill="#C2F2CA"-->
</g>
<g filter="url(#filter3_d_4866_298)">
<path d="M43.6381 141.641C43.3389 141.497 43.132 141.289 43.0173 141.017C42.8996 140.736 42.9099 140.452 43.0483 140.165C43.2206 139.807 43.5624 139.585 44.0736 139.499C45.169 139.34 45.9286 138.82 46.3523 137.94C46.6715 137.278 46.7246 136.635 46.5115 136.012C46.2954 135.38 45.8559 134.905 45.1931 134.586C44.5537 134.278 43.9357 134.233 43.3391 134.452C42.7395 134.661 42.2871 135.083 41.9821 135.717C41.6911 136.321 41.6253 136.99 41.7847 137.724C41.8744 138.078 41.9193 138.353 41.9193 138.548C41.9221 138.737 41.8825 138.917 41.8006 139.087C41.6255 139.45 41.3654 139.683 41.0204 139.784C40.6695 139.883 40.3003 139.824 39.9127 139.608L35.5471 137.105C34.7483 136.648 34.5805 135.939 35.0437 134.977L37.442 129.997C37.6114 129.645 37.8308 129.414 38.1 129.305C38.3661 129.188 38.6517 129.203 38.9567 129.35C39.2617 129.496 39.4527 129.708 39.5296 129.983C39.6006 130.256 39.5499 130.571 39.3776 130.929L37.187 135.478L40.1743 137.22L40.2336 137.097C40.0509 136.756 39.9789 136.32 40.0176 135.789C40.0563 135.259 40.2 134.735 40.4486 134.219C40.9994 133.076 41.8079 132.32 42.874 131.951C43.9401 131.583 45.0538 131.679 46.2152 132.238C47.4939 132.854 48.3243 133.77 48.7064 134.988C49.0884 136.205 48.9504 137.497 48.2922 138.864C47.7357 140.019 46.9969 140.856 46.0757 141.373C45.1486 141.888 44.3361 141.977 43.6381 141.641ZM50.975 129.647L42.4229 125.528L42.3974 125.581L42.6704 127.197C42.7264 127.636 42.6979 127.973 42.5849 128.208C42.4691 128.448 42.2925 128.612 42.055 128.7C41.8145 128.78 41.574 128.761 41.3335 128.645C40.9699 128.47 40.7472 128.085 40.6656 127.489L40.3242 125.385C40.2048 124.597 40.2637 123.957 40.501 123.464C40.7072 123.036 41.0073 122.758 41.4014 122.63C41.7984 122.496 42.2197 122.536 42.6655 122.751L52.1063 127.297C52.5111 127.492 52.7755 127.746 52.8995 128.059C53.0235 128.371 52.9951 128.715 52.8144 129.091C52.6364 129.46 52.3865 129.694 52.0648 129.792C51.7371 129.887 51.3739 129.839 50.975 129.647Z" fill="#000000"/> <!--fill="#202020"-->
</g>
<g filter="url(#filter4_i_4866_298)">
<path d="M52.4599 79.8387C49.7904 76.0256 50.5459 70.7942 54.185 67.8921L78.5654 48.4493C82.2046 45.5472 87.473 45.9748 90.5964 49.4259L118.253 79.9831C121.665 83.7528 121.189 89.6195 117.214 92.7896L88.8134 115.438C84.8383 118.608 79.0127 117.767 76.0968 113.602L52.4599 79.8387Z" fill="#D0D2ED" stroke="#D0D2ED"/> <!--fill="#D0D2ED"-->
</g>
<g filter="url(#filter5_d_4866_298)">
<path d="M80.2873 91.4755C80.1331 91.2821 80.0399 91.04 80.0078 90.7491C79.9717 90.4532 79.982 90.012 80.0389 89.4254L80.4391 84.085C80.5003 83.295 80.4921 82.6687 80.4145 82.206C80.342 81.7392 80.1799 81.348 79.9283 81.0324C79.5792 80.5946 79.154 80.3591 78.6528 80.3258C78.1476 80.2874 77.6608 80.4549 77.1925 80.8284C76.3984 81.4616 76.1755 82.3097 76.5236 83.3728C76.5922 83.7094 76.5979 83.988 76.5406 84.2086C76.4884 84.4251 76.3631 84.6125 76.1646 84.7708C75.9101 84.9737 75.6364 85.0587 75.3437 85.0257C75.0519 84.9836 74.8046 84.8353 74.6016 84.5808C74.2363 84.1227 74.0368 83.5698 74.0033 82.922C73.9697 82.2743 74.1217 81.6035 74.4593 80.9096C74.798 80.2065 75.3007 79.5891 75.9675 79.0573C76.9753 78.2536 78.0283 77.8719 79.1263 77.9122C80.2203 77.9475 81.1103 78.3952 81.7963 79.2554C82.2103 79.7746 82.4818 80.3866 82.6109 81.0914C82.7359 81.7911 82.7441 82.7464 82.6355 83.9572L82.2777 88.4893L82.3568 88.5886L85.9377 85.733C86.238 85.4935 86.533 85.3831 86.8228 85.4019C87.1135 85.4115 87.3645 85.5486 87.5756 85.8133C87.7826 86.0729 87.8584 86.3455 87.8031 86.6311C87.7528 86.9127 87.5775 87.1732 87.2772 87.4127L82.1312 91.5165C81.7952 91.7844 81.4585 91.9156 81.1209 91.91C80.7885 91.9003 80.5106 91.7555 80.2873 91.4755ZM87.3222 83.7795C87.1314 83.5403 87.0494 83.2809 87.0763 83.0013C87.1032 82.7217 87.2337 82.4886 87.4678 82.3019C87.7885 82.0462 88.2308 82.0057 88.7949 82.1804C89.8202 82.5368 90.7656 82.37 91.6309 81.6799C92.2009 81.2253 92.5428 80.7195 92.6566 80.1625C92.7754 79.6014 92.646 79.0842 92.2685 78.6108C91.891 78.1375 91.4135 77.8937 90.836 77.8796C90.2545 77.8604 89.6837 78.0741 89.1238 78.5206L88.3756 79.1173C88.1465 79.2999 87.8948 79.3758 87.6203 79.3449C87.3469 79.3048 87.1168 79.1677 86.9301 78.9335C86.7474 78.7045 86.669 78.4548 86.6948 78.1843C86.7257 77.9099 86.8557 77.6813 87.0848 77.4986L87.7948 76.9324C88.2631 76.5589 88.5404 76.113 88.6266 75.5946C88.7179 75.0721 88.5971 74.6022 88.2642 74.1848C87.9314 73.7674 87.5088 73.5507 86.9963 73.5347C86.4799 73.5135 85.9798 73.6958 85.4963 74.0814C84.7379 74.6862 84.4311 75.4971 84.5759 76.5141C84.6453 77.05 84.5043 77.4581 84.1531 77.7381C83.9088 77.933 83.6468 78.017 83.3673 77.9901C83.0836 77.9581 82.8424 77.8175 82.6435 77.568C82.1442 76.942 82.0438 76.1269 82.3422 75.1228C82.6407 74.1187 83.2785 73.227 84.2558 72.4476C85.3095 71.6073 86.3747 71.1784 87.4514 71.1607C88.5333 71.139 89.399 71.5354 90.0484 72.3498C90.499 72.9148 90.7191 73.5719 90.7088 74.3213C90.6985 75.0706 90.4617 75.6925 89.9983 76.1869L90.1018 76.3167C90.7868 75.8704 91.5333 75.7206 92.3414 75.8672C93.1454 76.0088 93.8113 76.4104 94.339 77.0721C95.0656 77.9832 95.2938 79.0212 95.0235 80.186C94.7544 81.3416 94.0446 82.3781 92.8942 83.2955C91.8813 84.1033 90.8283 84.5475 89.7351 84.6282C88.6379 84.7037 87.8336 84.4209 87.3222 83.7795Z" fill="#000000"/> <!--fill="#202020"-->
</g>
<g filter="url(#filter6_i_4866_298)">
<path d="M115.124 37.614C114.373 33.0203 117.323 28.6346 121.861 27.5989L152.263 20.6598C156.801 19.6241 161.362 22.2952 162.679 26.7597L174.339 66.2908C175.777 71.1675 172.803 76.2466 167.846 77.378L132.431 85.4611C127.474 86.5925 122.59 83.307 121.77 78.2892L115.124 37.614Z" fill="#9383F1" stroke="#9383F1"/> <!--fill="#9383F1"-->
</g>
<g filter="url(#filter7_d_4866_298)">
<path d="M135.172 59.2247C135.104 58.9264 135.142 58.6674 135.285 58.4476C135.434 58.2201 135.651 58.0737 135.936 58.0086C136.222 57.9434 136.571 58.0106 136.984 58.2102C137.746 58.6238 138.502 58.7452 139.251 58.5743C140.184 58.3613 140.804 57.7992 141.11 56.8879C141.415 55.9702 141.397 54.7688 141.058 53.2836L140.973 53.3031C140.876 53.9597 140.584 54.527 140.099 55.005C139.62 55.4816 139.013 55.8039 138.276 55.972C137.077 56.2458 136.009 56.0722 135.072 55.4512C134.134 54.8238 133.521 53.8754 133.231 52.606C132.924 51.2604 133.111 50.0758 133.792 49.0522C134.472 48.0222 135.519 47.3457 136.935 47.0227C138.522 46.6605 139.879 46.9617 141.008 47.9262C142.142 48.8892 142.952 50.4307 143.435 52.5507C143.942 54.7722 143.877 56.5769 143.239 57.9646C142.599 59.346 141.429 60.2308 139.728 60.6191C138.592 60.8784 137.567 60.8518 136.654 60.5392C135.8 60.2468 135.306 59.8087 135.172 59.2247ZM140.153 50.9859C139.99 50.2687 139.647 49.7326 139.125 49.3775C138.603 49.0225 138.009 48.921 137.343 49.0732C136.683 49.2238 136.198 49.5716 135.888 50.1164C135.578 50.6612 135.505 51.289 135.667 51.9999C135.829 52.7108 136.167 53.2382 136.679 53.5819C137.192 53.9257 137.781 54.0216 138.448 53.8695C139.114 53.7173 139.604 53.3752 139.916 52.8431C140.235 52.3095 140.314 51.6905 140.153 50.9859ZM144.327 52.788L144.188 52.1787C143.738 50.2111 143.822 48.5426 144.437 47.1734C145.059 45.8027 146.138 44.942 147.674 44.5915C149.217 44.2394 150.555 44.5449 151.69 45.508C152.831 46.4696 153.628 47.9406 154.08 49.9209L154.219 50.5302C154.666 52.4915 154.577 54.1614 153.95 55.5399C153.328 56.9106 152.252 57.7705 150.722 58.1197C149.192 58.4688 147.857 58.1626 146.716 57.2009C145.574 56.233 144.777 54.762 144.327 52.788ZM146.76 51.6015L146.893 52.1823C147.206 53.5533 147.66 54.5781 148.256 55.2569C148.858 55.9342 149.527 56.1888 150.263 56.0207C150.999 55.8527 151.489 55.3337 151.731 54.4637C151.979 53.5923 151.947 52.4711 151.634 51.1001L151.502 50.5193C151.19 49.1547 150.733 48.1337 150.131 47.4564C149.536 46.7777 148.87 46.5223 148.134 46.6904C147.397 46.8584 146.905 47.3782 146.656 48.2496C146.413 49.1132 146.447 50.2305 146.76 51.6015Z" fill="#000000"/> <!--fill="#202020"-->
</g>
<g filter="url(#filter8_i_4866_298)"> <!--filter="url(#filter8_dddi_4866_298)"-->
<path d="M189.902 26.7598C191.219 22.2953 195.78 19.6242 200.318 20.6599L230.72 27.5989C235.258 28.6347 238.208 33.0203 237.458 37.614L230.811 78.2892C229.991 83.3071 225.107 86.5926 220.15 85.4612L184.735 77.378C179.778 76.2466 176.804 71.1675 178.242 66.2908L189.902 26.7598Z" fill="#5CFFEB" stroke="#5CFFEB"/> <!--fill="#5CFFEB"-->
<!-- <path d="M192.3 27.4671C193.243 24.2688 196.511 22.3552 199.762 23.0972L230.163 30.0363C233.414 30.7783 235.528 33.92 234.99 37.2108L228.343 77.886C227.756 81.4807 224.257 83.8344 220.706 83.0239L185.292 74.9407C181.741 74.1302 179.61 70.4917 180.64 66.9981L192.3 27.4671Z" stroke="red" stroke-opacity="0.6" stroke-width="5"/> -->
</g>
<g filter="url(#filter9_d_4866_298)">
<path d="M198.713 54.9575C198.781 54.6592 198.927 54.4422 199.152 54.3065C199.384 54.1659 199.643 54.1282 199.929 54.1934C200.214 54.2586 200.5 54.4706 200.785 54.8296C201.293 55.533 201.921 55.9702 202.67 56.1412C203.603 56.3541 204.405 56.1165 205.076 55.4283C205.749 54.7338 206.255 53.6439 206.594 52.1586L206.508 52.1391C206.135 52.6884 205.627 53.0732 204.982 53.2934C204.344 53.515 203.657 53.5418 202.921 53.3737C201.721 53.0999 200.834 52.4801 200.26 51.5143C199.687 50.5422 199.546 49.4214 199.835 48.152C200.142 46.8063 200.825 45.8202 201.883 45.1936C202.942 44.5605 204.18 44.4056 205.595 44.7286C207.182 45.0908 208.274 45.9512 208.872 47.3097C209.477 48.6697 209.537 50.4097 209.053 52.5297C208.546 54.7512 207.704 56.3487 206.527 57.3221C205.351 58.2891 203.913 58.5785 202.212 58.1903C201.076 57.931 200.164 57.4625 199.478 56.7849C198.834 56.1506 198.579 55.5415 198.713 54.9575ZM206.775 49.6959C206.939 48.9786 206.863 48.3469 206.547 47.8006C206.231 47.2543 205.739 46.9052 205.073 46.753C204.413 46.6024 203.825 46.7053 203.31 47.0618C202.794 47.4183 202.455 47.9519 202.293 48.6628C202.131 49.3737 202.206 49.9952 202.519 50.5273C202.831 51.0595 203.321 51.4016 203.987 51.5537C204.654 51.7058 205.243 51.61 205.756 51.2662C206.274 50.9238 206.614 50.4004 206.775 49.6959ZM209.229 57.3578C209.297 57.0595 209.443 56.8425 209.668 56.7068C209.9 56.5662 210.16 56.5285 210.445 56.5937C210.731 56.6588 211.016 56.8709 211.302 57.2299C211.809 57.9333 212.437 58.3705 213.186 58.5414C214.119 58.7544 214.921 58.5168 215.592 57.8286C216.265 57.134 216.771 56.0441 217.11 54.5589L217.024 54.5393C216.652 55.0887 216.143 55.4735 215.499 55.6937C214.86 55.9153 214.173 55.942 213.437 55.774C212.237 55.5002 211.35 54.8804 210.776 53.9146C210.203 52.9424 210.062 51.8217 210.352 50.5522C210.659 49.2066 211.341 48.2205 212.399 47.5938C213.458 46.9608 214.696 46.8058 216.111 47.1289C217.698 47.4911 218.791 48.3514 219.389 49.71C219.993 51.07 220.053 52.81 219.569 54.93C219.062 57.1515 218.22 58.7489 217.043 59.7223C215.868 60.6894 214.429 60.9788 212.728 60.5906C211.592 60.3312 210.681 59.8628 209.994 59.1852C209.351 58.5509 209.096 57.9418 209.229 57.3578ZM217.291 52.0961C217.455 51.3789 217.379 50.7471 217.063 50.2009C216.747 49.6546 216.256 49.3054 215.589 49.1533C214.929 49.0026 214.341 49.1056 213.826 49.462C213.31 49.8185 212.972 50.3522 212.809 51.0631C212.647 51.774 212.722 52.3955 213.035 52.9276C213.347 53.4597 213.837 53.8018 214.503 53.954C215.17 54.1061 215.759 54.0102 216.272 53.6664C216.791 53.3241 217.131 52.8007 217.291 52.0961Z" fill="#000000"/> <!--fill="#202020"-->
</g>
<g filter="url(#filter10_i_4866_298)">
<path d="M261.985 49.4258C265.108 45.9748 270.376 45.5471 274.016 48.4492L298.396 67.892C302.035 70.7941 302.791 76.0256 300.121 79.8386L276.484 113.602C273.568 117.767 267.743 118.608 263.768 115.438L235.367 92.7895C231.392 89.6194 230.916 83.7527 234.328 79.9831L261.985 49.4258Z" fill="#B1EEBF" stroke="#B1EEBF"/> <!--fill="#B1EEBF"-->
</g>
<g filter="url(#filter11_d_4866_298)">
<path d="M256.809 79.1266C256.963 78.9332 257.179 78.7885 257.455 78.6925C257.735 78.5914 258.168 78.5033 258.752 78.4282L264.048 77.63C264.832 77.5139 265.441 77.3665 265.874 77.1879C266.313 77.0134 266.659 76.7683 266.91 76.4528C267.259 76.015 267.395 75.5481 267.315 75.0521C267.24 74.5509 266.969 74.1136 266.501 73.7402C265.706 73.1069 264.83 73.0783 263.871 73.6542C263.558 73.7961 263.288 73.8636 263.06 73.8568C262.837 73.8541 262.627 73.7736 262.428 73.6153C262.174 73.4123 262.03 73.1645 261.997 72.8717C261.973 72.5779 262.063 72.3037 262.266 72.0492C262.631 71.5911 263.126 71.2736 263.75 71.0968C264.374 70.9199 265.062 70.9189 265.813 71.0936C266.574 71.2673 267.288 71.62 267.955 72.1518C268.962 72.9555 269.569 73.8971 269.774 74.9766C269.983 76.051 269.744 77.0183 269.058 77.8785C268.644 78.3977 268.108 78.7986 267.45 79.0813C266.795 79.3588 265.866 79.5794 264.661 79.7429L260.163 80.4026L260.084 80.5018L263.665 83.3575C263.965 83.597 264.138 83.86 264.185 84.1467C264.24 84.4323 264.162 84.7075 263.951 84.9722C263.744 85.2317 263.495 85.3663 263.204 85.3759C262.919 85.3896 262.626 85.2767 262.325 85.0372L257.179 80.9334C256.843 80.6655 256.641 80.3663 256.571 80.036C256.506 79.7097 256.586 79.4066 256.809 79.1266ZM265.639 84.9943C265.83 84.7551 266.056 84.6231 266.317 84.5983C266.588 84.5724 266.837 84.6508 267.066 84.8335C267.295 85.0162 267.461 85.3311 267.562 85.7783C267.714 86.6322 268.09 87.2986 268.691 87.7776C269.439 88.3743 270.265 88.5082 271.168 88.1794C272.076 87.8455 273.004 87.0831 273.954 85.892L273.885 85.8372C273.311 86.1706 272.686 86.2966 272.01 86.2153C271.339 86.138 270.708 85.864 270.118 85.3931C269.156 84.6259 268.625 83.6827 268.527 82.5634C268.433 81.439 268.792 80.3678 269.603 79.3498C270.464 78.2707 271.507 77.6783 272.732 77.5727C273.961 77.4621 275.143 77.8593 276.278 78.7645C277.551 79.7793 278.161 81.0285 278.111 82.512C278.065 83.9996 277.365 85.5934 276.009 87.2935C274.588 89.075 273.137 90.1489 271.654 90.5152C270.175 90.8764 268.753 90.5131 267.389 89.4252C266.478 88.6986 265.86 87.8811 265.535 86.9726C265.231 86.122 265.266 85.4626 265.639 84.9943ZM275.186 83.7519C275.645 83.1767 275.85 82.5744 275.802 81.9451C275.755 81.3158 275.464 80.7881 274.929 80.3619C274.4 79.9397 273.826 79.7774 273.207 79.875C272.588 79.9725 272.051 80.3063 271.596 80.8764C271.141 81.4465 270.939 82.0391 270.99 82.6541C271.041 83.2692 271.334 83.7898 271.868 84.216C272.403 84.6423 272.975 84.8117 273.586 84.7243C274.202 84.641 274.736 84.3169 275.186 83.7519Z" fill="#000000"/> <!--fill="#202020"-->
</g>
<g filter="url(#filter12_i_4866_298)">
<path d="M317.095 101.122C321.406 99.3684 326.338 101.269 328.358 105.463L341.888 133.558C343.908 137.752 342.318 142.793 338.259 145.07L302.313 165.234C297.879 167.722 292.265 165.952 290.059 161.371L274.298 128.643C272.092 124.062 274.209 118.57 278.918 116.654L317.095 101.122Z" fill="#90F98D" stroke="#90F98D"/> <!--fill="#90F98D"-->
</g>
<g filter="url(#filter13_d_4866_298)">
<path d="M304.152 123.073C306.211 122.081 307.998 121.741 309.514 122.052C311.035 122.36 312.171 123.294 312.923 124.854C313.439 125.927 313.631 126.963 313.497 127.959C313.438 128.363 313.322 128.715 313.149 129.016C312.982 129.313 312.78 129.518 312.546 129.631C312.282 129.758 312.027 129.776 311.781 129.685C311.535 129.594 311.345 129.411 311.212 129.135C311.071 128.842 311.057 128.444 311.169 127.942C311.388 127.121 311.343 126.391 311.035 125.752C310.623 124.896 309.943 124.421 308.995 124.328C308.056 124.239 306.885 124.524 305.484 125.185L305.522 125.264C306.143 125.218 306.744 125.387 307.327 125.771C307.915 126.153 308.369 126.675 308.688 127.338C309.219 128.44 309.292 129.514 308.907 130.56C308.524 131.611 307.758 132.414 306.608 132.967C305.353 133.572 304.148 133.657 302.993 133.224C301.84 132.796 300.95 131.931 300.323 130.629C299.572 129.069 299.576 127.607 300.336 126.244C301.003 125.034 302.275 123.977 304.152 123.073ZM303.411 126.53C302.754 126.846 302.313 127.304 302.089 127.903C301.867 128.509 301.908 129.125 302.21 129.753C302.506 130.369 302.949 130.77 303.537 130.956C304.131 131.14 304.763 131.071 305.432 130.749C306.089 130.432 306.526 129.983 306.744 129.401C306.963 128.819 306.921 128.214 306.619 127.586C306.322 126.971 305.872 126.562 305.27 126.361C304.67 126.166 304.05 126.222 303.411 126.53ZM305.029 140.4C304.362 139.016 304.146 137.743 304.382 136.582C304.624 135.418 305.272 134.582 306.328 134.073C307.073 133.714 307.828 133.632 308.594 133.827C309.369 134.025 310.014 134.466 310.531 135.149L310.663 135.085C310.555 134.35 310.649 133.69 310.946 133.107C311.243 132.523 311.711 132.077 312.351 131.769C313.283 131.32 314.232 131.34 315.197 131.829C316.166 132.324 316.945 133.184 317.535 134.41C318.126 135.636 318.311 136.779 318.091 137.838C317.875 138.904 317.3 139.661 316.367 140.11C315.734 140.415 315.092 140.5 314.442 140.365C313.8 140.234 313.226 139.896 312.718 139.353L312.586 139.416C312.795 140.24 312.736 141.017 312.408 141.746C312.085 142.472 311.555 143.013 310.816 143.369C309.766 143.875 308.705 143.854 307.632 143.309C306.566 142.76 305.698 141.79 305.029 140.4ZM312.37 136.897C312.639 137.454 313.019 137.831 313.511 138.028C314.012 138.227 314.515 138.206 315.019 137.963C315.518 137.723 315.839 137.348 315.984 136.837C316.134 136.324 316.076 135.792 315.811 135.24C315.545 134.689 315.165 134.312 314.67 134.11C314.181 133.904 313.687 133.922 313.189 134.162C312.684 134.405 312.354 134.784 312.198 135.3C312.047 135.813 312.105 136.346 312.37 136.897ZM306.757 139.6C307.076 140.263 307.524 140.72 308.099 140.97C308.678 141.226 309.255 141.216 309.83 140.939C310.404 140.662 310.775 140.216 310.941 139.601C311.111 138.992 311.036 138.357 310.716 137.694C310.394 137.025 309.943 136.567 309.361 136.32C308.779 136.072 308.201 136.087 307.626 136.364C307.051 136.641 306.682 137.082 306.519 137.688C306.356 138.294 306.435 138.932 306.757 139.6Z" fill="#000000"/> <!--fill="#202020"-->
</g>
<g filter="url(#filter14_i_4866_298)">
<path d="M344.316 171.611C348.962 171.901 352.581 175.753 352.581 180.408V211.592C352.581 216.246 348.962 220.099 344.316 220.389L303.182 222.96C298.107 223.277 293.818 219.247 293.818 214.163V177.837C293.818 172.753 298.107 168.723 303.182 169.04L344.316 171.611Z" fill="#F3CFE3" stroke="#F3CFE3"/> <!--fill="#F3CFE3"-->
</g>
<g filter="url(#filter15_d_4866_298)">
<path d="M317.868 186.475C318.116 186.475 318.363 186.553 318.61 186.709C318.864 186.866 319.203 187.149 319.626 187.559L323.552 191.202C324.131 191.742 324.626 192.126 325.036 192.354C325.446 192.588 325.853 192.706 326.257 192.706C326.817 192.706 327.266 192.52 327.604 192.149C327.95 191.778 328.122 191.293 328.122 190.694C328.122 189.678 327.598 188.975 326.55 188.584C326.244 188.428 326.022 188.259 325.886 188.077C325.749 187.901 325.681 187.686 325.681 187.432C325.681 187.107 325.785 186.84 325.993 186.631C326.208 186.429 326.478 186.329 326.804 186.329C327.39 186.329 327.946 186.517 328.474 186.895C329.001 187.273 329.431 187.81 329.763 188.506C330.101 189.209 330.271 189.987 330.271 190.84C330.271 192.129 329.912 193.191 329.196 194.024C328.487 194.857 327.582 195.274 326.481 195.274C325.817 195.274 325.17 195.105 324.538 194.766C323.913 194.428 323.161 193.838 322.282 192.998L318.962 189.893H318.835V194.473C318.835 194.857 318.737 195.157 318.542 195.372C318.353 195.593 318.09 195.704 317.751 195.704C317.419 195.704 317.159 195.593 316.97 195.372C316.781 195.157 316.687 194.857 316.687 194.473V187.891C316.687 187.461 316.794 187.116 317.009 186.856C317.224 186.602 317.51 186.475 317.868 186.475ZM323.024 196.568H323.649C325.668 196.568 327.276 197.021 328.474 197.926C329.672 198.837 330.271 200.081 330.271 201.656C330.271 203.238 329.675 204.475 328.483 205.367C327.292 206.266 325.681 206.715 323.649 206.715H323.024C321.013 206.715 319.405 206.256 318.2 205.338C317.002 204.426 316.403 203.186 316.403 201.617C316.403 200.048 316.999 198.815 318.19 197.916C319.388 197.018 321 196.568 323.024 196.568ZM323.64 199.205H323.044C321.638 199.205 320.537 199.42 319.743 199.85C318.949 200.286 318.552 200.882 318.552 201.637C318.552 202.392 318.949 202.984 319.743 203.414C320.537 203.85 321.638 204.068 323.044 204.068H323.64C325.039 204.068 326.136 203.85 326.931 203.414C327.725 202.984 328.122 202.392 328.122 201.637C328.122 200.882 327.725 200.286 326.931 199.85C326.143 199.42 325.046 199.205 323.64 199.205Z" fill="#000000"/> <!--fill="#202020"-->
</g>
<g filter="url(#filter16_i_4866_298)">
<path d="M338.259 246.93C342.318 249.207 343.907 254.248 341.888 258.442L328.358 286.537C326.338 290.731 321.406 292.632 317.094 290.878L278.918 275.346C274.208 273.43 272.092 267.938 274.298 263.357L290.059 230.629C292.265 226.048 297.879 224.278 302.313 226.766L338.259 246.93Z" fill="#B7E2EA" stroke="#B7E2EA"/> <!--fill="#B7E2EA"-->
</g>
<g filter="url(#filter17_d_4866_298)">
<path d="M308.973 248.9C309.249 249.033 309.428 249.224 309.51 249.473C309.596 249.731 309.575 249.992 309.448 250.256C309.321 250.52 309.05 250.751 308.637 250.949C307.838 251.287 307.272 251.802 306.939 252.494C306.524 253.356 306.577 254.191 307.098 254.999C307.626 255.809 308.576 256.545 309.948 257.206L309.987 257.127C309.534 256.642 309.272 256.06 309.201 255.383C309.127 254.711 309.254 254.035 309.581 253.355C310.115 252.246 310.917 251.519 311.986 251.174C313.061 250.832 314.185 250.944 315.359 251.509C316.602 252.108 317.412 252.992 317.787 254.163C318.169 255.337 318.044 256.578 317.414 257.886C316.708 259.352 315.626 260.226 314.169 260.507C312.708 260.793 310.999 260.465 309.039 259.521C306.986 258.533 305.616 257.356 304.929 255.992C304.248 254.631 304.286 253.164 305.043 251.592C305.549 250.542 306.208 249.758 307.022 249.239C307.783 248.753 308.434 248.64 308.973 248.9ZM312.309 257.931C312.972 258.25 313.605 258.317 314.208 258.13C314.811 257.943 315.26 257.542 315.557 256.926C315.851 256.316 315.881 255.72 315.648 255.138C315.415 254.557 314.971 254.108 314.314 253.791C313.657 253.475 313.034 253.41 312.446 253.596C311.857 253.782 311.415 254.184 311.118 254.8C310.822 255.415 310.784 256.011 311.005 256.588C311.223 257.17 311.658 257.617 312.309 257.931ZM303.453 258.246C303.676 258.354 303.865 258.532 304.02 258.78C304.181 259.031 304.364 259.433 304.567 259.986L306.523 264.971C306.811 265.709 307.09 266.27 307.361 266.653C307.629 267.042 307.944 267.325 308.308 267.5C308.813 267.743 309.298 267.77 309.764 267.583C310.236 267.398 310.602 267.036 310.861 266.496C311.302 265.581 311.135 264.721 310.36 263.914C310.152 263.64 310.026 263.392 309.982 263.168C309.935 262.95 309.967 262.727 310.077 262.498C310.218 262.205 310.428 262.01 310.706 261.913C310.987 261.824 311.274 261.85 311.568 261.992C312.096 262.246 312.515 262.657 312.826 263.226C313.138 263.795 313.292 264.466 313.289 265.237C313.289 266.018 313.104 266.792 312.734 267.561C312.174 268.722 311.391 269.523 310.384 269.963C309.384 270.406 308.387 270.389 307.396 269.911C306.798 269.623 306.288 269.189 305.866 268.61C305.449 268.034 305.027 267.177 304.6 266.039L302.956 261.801L302.842 261.745L300.854 265.872C300.688 266.218 300.47 266.445 300.201 266.554C299.934 266.672 299.649 266.657 299.344 266.51C299.045 266.366 298.858 266.153 298.784 265.872C298.707 265.597 298.752 265.286 298.919 264.94L301.774 259.01C301.961 258.622 302.207 258.358 302.514 258.217C302.818 258.081 303.131 258.091 303.453 258.246Z" fill="#000000"/> <!--fill="#202020"-->
</g>
<g filter="url(#filter18_i_4866_298)">
<path d="M300.121 312.161C302.791 315.974 302.035 321.206 298.396 324.108L274.016 343.551C270.377 346.453 265.108 346.025 261.985 342.574L234.328 312.017C230.916 308.247 231.392 302.381 235.367 299.21L263.768 276.562C267.743 273.392 273.568 274.233 276.484 278.398L300.121 312.161Z" fill="#E7B1F4" stroke="#E7B1F4"/> <!--fill="#E7B1F4"-->
</g>
<g filter="url(#filter19_d_4866_298)">
<path d="M272.681 301.39C272.872 301.629 272.95 301.878 272.917 302.139C272.882 302.408 272.75 302.634 272.52 302.817C272.291 302.999 271.948 303.09 271.489 303.09C270.623 303.048 269.889 303.266 269.289 303.745C268.541 304.342 268.226 305.117 268.346 306.071C268.469 307.03 269.006 308.105 269.956 309.296L270.025 309.241C269.827 308.608 269.844 307.97 270.073 307.329C270.298 306.692 270.706 306.138 271.296 305.667C272.258 304.9 273.296 304.593 274.409 304.746C275.526 304.904 276.49 305.492 277.302 306.51C278.163 307.59 278.508 308.738 278.339 309.956C278.173 311.179 277.523 312.243 276.388 313.148C275.115 314.163 273.761 314.48 272.326 314.101C270.886 313.726 269.488 312.688 268.132 310.988C266.712 309.206 265.988 307.552 265.96 306.025C265.937 304.503 266.608 303.198 267.972 302.11C268.883 301.383 269.818 300.963 270.776 300.848C271.673 300.741 272.308 300.921 272.681 301.39ZM271.768 310.974C272.227 311.549 272.768 311.883 273.392 311.977C274.017 312.07 274.596 311.904 275.13 311.477C275.66 311.055 275.946 310.532 275.988 309.906C276.031 309.281 275.825 308.683 275.37 308.113C274.916 307.543 274.383 307.215 273.772 307.127C273.161 307.04 272.588 307.209 272.054 307.635C271.52 308.062 271.227 308.582 271.176 309.197C271.12 309.817 271.318 310.409 271.768 310.974ZM267.226 311.161L267.616 311.649C268.874 313.227 269.523 314.767 269.563 316.267C269.597 317.772 268.998 319.016 267.766 319.998C266.529 320.984 265.191 321.29 263.751 320.915C262.306 320.543 260.95 319.564 259.683 317.976L259.294 317.487C258.039 315.914 257.395 314.371 257.362 312.857C257.328 311.352 257.924 310.11 259.151 309.132C260.378 308.154 261.714 307.85 263.159 308.222C264.608 308.598 265.964 309.578 267.226 311.161ZM265.548 313.286L265.177 312.82C264.3 311.72 263.446 310.994 262.615 310.641C261.779 310.292 261.066 310.353 260.475 310.824C259.885 311.295 259.669 311.975 259.828 312.863C259.983 313.756 260.498 314.753 261.375 315.852L261.746 316.318C262.619 317.412 263.473 318.134 264.31 318.483C265.141 318.836 265.852 318.777 266.442 318.306C267.033 317.835 267.251 317.153 267.096 316.26C266.941 315.377 266.425 314.385 265.548 313.286Z" fill="#000000"/> <!--fill="#202020"-->
</g>
<g filter="url(#filter20_i_4866_298)">
<path d="M237.457 354.386C238.208 358.98 235.258 363.365 230.72 364.401L200.318 371.34C195.78 372.376 191.219 369.705 189.902 365.24L178.242 325.709C176.804 320.833 179.778 315.753 184.735 314.622L220.15 306.539C225.107 305.407 229.991 308.693 230.811 313.711L237.457 354.386Z" fill="#ABFCC5" stroke="#ABFCC5"/> <!--fill="#ABFCC5"-->
</g>
<g filter="url(#filter21_d_4866_298)">
<path d="M213.919 338.029C214.428 340.257 214.362 342.075 213.722 343.483C213.083 344.898 211.92 345.798 210.231 346.183C209.07 346.448 208.018 346.405 207.076 346.052C206.695 345.905 206.378 345.714 206.124 345.478C205.871 345.248 205.716 345.007 205.658 344.753C205.592 344.467 205.632 344.215 205.775 343.995C205.919 343.775 206.14 343.631 206.438 343.563C206.755 343.491 207.146 343.565 207.611 343.786C208.362 344.182 209.084 344.301 209.776 344.144C210.702 343.932 211.316 343.375 211.618 342.471C211.914 341.575 211.896 340.371 211.564 338.857L211.478 338.877C211.385 339.492 211.086 340.041 210.582 340.524C210.079 341.012 209.469 341.339 208.752 341.502C207.559 341.775 206.495 341.607 205.562 340.998C204.622 340.392 204.01 339.466 203.726 338.222C203.416 336.864 203.601 335.67 204.281 334.64C204.954 333.611 205.996 332.936 207.405 332.615C209.093 332.229 210.517 332.559 211.677 333.603C212.708 334.523 213.456 335.998 213.919 338.029ZM210.714 336.537C210.552 335.826 210.203 335.295 209.669 334.942C209.128 334.592 208.518 334.494 207.839 334.649C207.173 334.801 206.683 335.143 206.37 335.675C206.059 336.214 205.986 336.845 206.151 337.568C206.314 338.279 206.654 338.806 207.173 339.148C207.692 339.491 208.291 339.584 208.97 339.429C209.637 339.277 210.135 338.93 210.465 338.387C210.789 337.845 210.872 337.229 210.714 336.537Z" fill="#000000"/> <!--fill="#202020"-->
</g>
<g filter="url(#filter22_i_4866_298)">
<path d="M162.679 365.24C161.362 369.705 156.801 372.376 152.263 371.34L121.861 364.401C117.323 363.365 114.373 358.98 115.124 354.386L121.77 313.711C122.59 308.693 127.474 305.407 132.431 306.539L167.846 314.622C172.803 315.753 175.777 320.832 174.339 325.709L162.679 365.24Z" fill="#F4ADEC" stroke="#F4ADEC"/> <!--fill="#F4ADEC"-->
</g>
<g filter="url(#filter23_d_4866_298)">
<path d="M153.587 341.436C153.078 343.664 152.23 345.273 151.042 346.264C149.853 347.261 148.414 347.567 146.726 347.182C145.564 346.917 144.636 346.421 143.94 345.695C143.661 345.397 143.458 345.087 143.331 344.764C143.203 344.448 143.168 344.163 143.226 343.909C143.291 343.623 143.436 343.413 143.661 343.277C143.885 343.141 144.147 343.107 144.445 343.176C144.762 343.248 145.082 343.485 145.405 343.885C145.91 344.568 146.509 344.989 147.201 345.147C148.127 345.358 148.922 345.122 149.586 344.439C150.241 343.761 150.748 342.668 151.106 341.16L151.02 341.14C150.669 341.654 150.161 342.019 149.498 342.235C148.833 342.457 148.142 342.487 147.424 342.323C146.231 342.051 145.346 341.438 144.769 340.485C144.185 339.53 144.036 338.431 144.319 337.187C144.629 335.829 145.314 334.833 146.374 334.2C147.427 333.565 148.658 333.409 150.067 333.731C151.755 334.116 152.895 335.031 153.487 336.475C154.017 337.751 154.05 339.405 153.587 341.436ZM151.346 338.701C151.509 337.99 151.425 337.36 151.097 336.81C150.761 336.26 150.254 335.907 149.575 335.752C148.909 335.6 148.319 335.696 147.807 336.04C147.293 336.39 146.953 336.927 146.788 337.65C146.626 338.361 146.704 338.983 147.023 339.517C147.342 340.05 147.841 340.395 148.52 340.55C149.187 340.702 149.786 340.605 150.319 340.259C150.846 339.912 151.188 339.392 151.346 338.701ZM139.493 331.317C140.991 331.659 142.121 332.284 142.882 333.193C143.641 334.107 143.891 335.136 143.63 336.278C143.446 337.084 143.039 337.726 142.409 338.203C141.771 338.685 141.024 338.916 140.168 338.894L140.135 339.037C140.778 339.41 141.235 339.895 141.506 340.491C141.777 341.088 141.834 341.732 141.676 342.423C141.446 343.433 140.839 344.162 139.855 344.612C138.864 345.06 137.705 345.133 136.379 344.83C135.052 344.528 134.043 343.96 133.352 343.128C132.654 342.294 132.42 341.372 132.651 340.363C132.807 339.678 133.141 339.123 133.652 338.699C134.155 338.279 134.777 338.041 135.518 337.983L135.55 337.84C134.776 337.489 134.206 336.959 133.84 336.248C133.474 335.543 133.382 334.791 133.564 333.991C133.823 332.855 134.501 332.038 135.596 331.54C136.69 331.048 137.989 330.974 139.493 331.317ZM137.655 339.242C137.052 339.104 136.52 339.166 136.059 339.428C135.591 339.696 135.295 340.102 135.17 340.648C135.047 341.187 135.14 341.673 135.449 342.104C135.756 342.541 136.208 342.828 136.805 342.964C137.401 343.1 137.933 343.038 138.4 342.777C138.865 342.523 139.16 342.126 139.283 341.587C139.407 341.041 139.317 340.546 139.011 340.102C138.703 339.665 138.251 339.378 137.655 339.242ZM139.041 333.167C138.324 333.004 137.688 333.069 137.133 333.363C136.572 333.656 136.221 334.113 136.079 334.735C135.937 335.357 136.054 335.925 136.431 336.438C136.802 336.95 137.346 337.288 138.063 337.452C138.787 337.617 139.426 337.549 139.983 337.249C140.539 336.948 140.888 336.487 141.03 335.865C141.172 335.243 141.056 334.679 140.684 334.174C140.312 333.668 139.764 333.333 139.041 333.167Z" fill="#000000"/> <!--fill="#202020"-->
</g>
<g filter="url(#filter24_i_4866_298)">
<path d="M90.5965 342.574C87.473 346.025 82.2046 346.453 78.5655 343.551L54.1851 324.108C50.5459 321.206 49.7905 315.974 52.46 312.161L76.0969 278.398C79.0128 274.233 84.8384 273.392 88.8135 276.562L117.214 299.211C121.189 302.381 121.665 308.247 118.253 312.017L90.5965 342.574Z" fill="#B0B3F1" stroke="#B0B3F1"/> <!--fill="#B0B3F1"-->
</g>
<g filter="url(#filter25_d_4866_298)">
<path d="M92.6796 317.14C91.2548 318.926 89.7923 320.008 88.2922 320.386C86.788 320.768 85.3589 320.42 84.0049 319.34C83.0735 318.597 82.4519 317.748 82.1403 316.791C82.0177 316.402 81.9694 316.035 81.9953 315.689C82.0171 315.348 82.1092 315.076 82.2716 314.873C82.4543 314.644 82.6762 314.517 82.9375 314.492C83.1988 314.467 83.449 314.55 83.6882 314.741C83.9428 314.944 84.1283 315.296 84.245 315.797C84.4039 316.631 84.7608 317.27 85.3156 317.712C86.0587 318.305 86.8774 318.437 87.7717 318.11C88.6568 317.783 89.5874 317.018 90.5637 315.815L90.495 315.76C89.9556 316.071 89.3401 316.179 88.6485 316.086C87.9529 315.998 87.3176 315.724 86.7424 315.265C85.7855 314.502 85.2538 313.566 85.1473 312.457C85.0358 311.344 85.3778 310.288 86.1734 309.291C87.0421 308.201 88.091 307.601 89.3201 307.491C90.5441 307.376 91.7211 307.769 92.8511 308.67C94.205 309.75 94.8354 311.069 94.7422 312.627C94.6661 314.007 93.9785 315.511 92.6796 317.14ZM91.8477 313.703C92.3023 313.133 92.5006 312.529 92.4427 311.892C92.3797 311.251 92.0759 310.713 91.5312 310.278C90.9968 309.852 90.4241 309.683 89.8132 309.77C89.1982 309.863 88.6593 310.199 88.1965 310.779C87.7419 311.349 87.5425 311.944 87.5984 312.563C87.6543 313.182 87.9545 313.709 88.4991 314.143C89.0336 314.569 89.6159 314.742 90.2462 314.662C90.8714 314.578 91.4052 314.258 91.8477 313.703ZM82.4722 302.317L81.6928 303.294L85.5027 306.333C85.8946 306.645 86.1234 306.99 86.1891 307.367C86.2496 307.74 86.1379 308.105 85.8537 308.461C85.6142 308.761 85.1688 309.064 84.5176 309.369C82.3279 310.329 79.9709 311.202 77.4465 311.986C76.7524 312.199 76.1923 312.285 75.7662 312.245C75.335 312.201 74.9209 312.021 74.5239 311.704C74.0098 311.294 73.7112 310.844 73.6281 310.353C73.5399 309.858 73.6764 309.384 74.0377 308.931L78.4216 303.434L77.91 303.026C77.6352 302.806 77.4818 302.555 77.4498 302.271C77.4138 301.993 77.4993 301.724 77.7063 301.464C77.9093 301.21 78.1485 301.072 78.424 301.05C78.6944 301.024 78.9696 301.123 79.2496 301.346L79.7611 301.754L80.5405 300.777C80.8003 300.451 81.0918 300.263 81.415 300.212C81.7342 300.167 82.044 300.264 82.3443 300.504C82.6446 300.743 82.8082 301.024 82.8352 301.345C82.8529 301.667 82.7319 301.991 82.4722 302.317ZM83.5295 307.507L80.3533 304.974L76.219 310.158L76.3259 310.243C77.2598 309.939 78.4533 309.513 79.9065 308.964C81.3596 308.416 82.553 307.948 83.4868 307.56L83.5295 307.507Z" fill="#000000"/> <!--fill="#202020"-->
</g>
<g filter="url(#filter26_i_4866_298)">
<path d="M35.4865 290.878C31.175 292.632 26.2428 290.731 24.2232 286.537L10.6931 258.442C8.67355 254.248 10.2628 249.207 14.3223 246.93L50.2677 226.766C54.7021 224.278 60.3157 226.048 62.5217 230.629L78.2828 263.357C80.4888 267.938 78.3724 273.43 73.6628 275.346L35.4865 290.878Z" fill="#C3E4F5" stroke="#C3E4F5"/> <!--fill="#C3E4F5"-->
</g>
<g filter="url(#filter27_d_4866_298)">
<path d="M51.8845 267.482C51.5853 267.626 51.2937 267.658 51.0095 267.578C50.7166 267.496 50.501 267.31 50.3626 267.023C50.1902 266.665 50.2298 266.259 50.4811 265.806C51.0398 264.851 51.1073 263.933 50.6836 263.053C50.3644 262.39 49.8949 261.948 49.275 261.726C48.6465 261.501 48.0008 261.548 47.338 261.868C46.6986 262.176 46.2784 262.631 46.0772 263.234C45.8674 263.833 45.915 264.45 46.2201 265.083C46.5111 265.687 46.9933 266.156 47.6668 266.489C47.9994 266.64 48.242 266.776 48.3945 266.898C48.5442 267.013 48.66 267.156 48.742 267.326C48.9171 267.69 48.9367 268.038 48.8007 268.371C48.6589 268.707 48.3829 268.959 47.9727 269.128L43.2935 270.98C42.4382 271.32 41.7789 271.008 41.3156 270.046L38.9174 265.067C38.7479 264.715 38.7045 264.399 38.7873 264.121C38.8614 263.84 39.0509 263.626 39.3559 263.479C39.6609 263.332 39.9451 263.314 40.2084 263.426C40.4659 263.54 40.6808 263.777 40.8531 264.134L43.0437 268.683L46.2682 267.434L46.2089 267.311C45.8285 267.241 45.4429 267.026 45.0523 266.665C44.6616 266.303 44.342 265.865 44.0934 265.349C43.5426 264.205 43.4556 263.101 43.8325 262.038C44.2093 260.975 44.9784 260.164 46.1399 259.605C47.4186 258.989 48.6529 258.911 49.8428 259.372C51.0328 259.832 51.9568 260.745 52.615 262.112C53.1715 263.268 53.3648 264.367 53.195 265.41C53.0193 266.455 52.5825 267.146 51.8845 267.482ZM47.6848 251.874C48.3515 253.259 48.567 254.531 48.3314 255.693C48.0899 256.857 47.4412 257.693 46.3854 258.202C45.6404 258.56 44.885 258.642 44.1192 258.447C43.3447 258.25 42.699 257.809 42.182 257.126L42.0501 257.189C42.1585 257.925 42.0643 258.584 41.7674 259.168C41.4704 259.752 41.0023 260.198 40.3629 260.506C39.4303 260.955 38.4813 260.935 37.516 260.446C36.5479 259.951 35.7686 259.091 35.1782 257.865C34.5878 256.639 34.4024 255.496 34.622 254.436C34.8387 253.371 35.4134 252.614 36.3461 252.165C36.9796 251.86 37.6215 251.774 38.2717 251.909C38.9133 252.041 39.4877 252.379 39.9951 252.922L40.127 252.858C39.918 252.034 39.9775 251.258 40.3058 250.529C40.6281 249.803 41.1588 249.262 41.8979 248.906C42.9479 248.4 44.0089 248.42 45.0811 248.966C46.1475 249.515 47.0154 250.484 47.6848 251.874ZM40.343 255.378C40.0746 254.82 39.6944 254.443 39.2023 254.247C38.7015 254.047 38.1989 254.069 37.6944 254.312C37.1958 254.552 36.8743 254.927 36.7299 255.437C36.5796 255.951 36.6372 256.483 36.9027 257.034C37.1683 257.586 37.5485 257.963 38.0434 258.165C38.5325 258.37 39.0263 258.353 39.5249 258.113C40.0293 257.87 40.3596 257.49 40.5158 256.974C40.6661 256.461 40.6085 255.929 40.343 255.378ZM45.9564 252.674C45.6372 252.011 45.1897 251.555 44.614 251.305C44.0354 251.049 43.4587 251.059 42.8839 251.336C42.3091 251.613 41.9384 252.058 41.7721 252.673C41.6029 253.282 41.6779 253.918 41.9971 254.581C42.3191 255.25 42.7709 255.708 43.3525 255.955C43.9341 256.203 44.5124 256.188 45.0872 255.911C45.662 255.634 46.0311 255.193 46.1945 254.586C46.3578 253.98 46.2784 253.343 45.9564 252.674Z" fill="#000000"/> <!--fill="#202020"-->
</g>
</svg>
